<?xml version="1.0" encoding="utf-8"?>
<!-- Generator: Adobe Illustrator 20.0.0, SVG Export Plug-In . SVG Version: 6.00 Build 0)  -->
<svg version="1.1" id="Слой_1" xmlns="http://www.w3.org/2000/svg" xmlns:xlink="http://www.w3.org/1999/xlink" x="0px" y="0px"
	 viewBox="0 0 301.7 125.3" style="enable-background:new 0 0 301.7 125.3;" xml:space="preserve">
<style type="text/css">
	.st0{fill:#FFFFFF;}
</style>
<g>
	<g>
		<path class="st0" d="M146.8,40.3v29.3h-6.5V40.3H146.8z"/>
		<path class="st0" d="M155.4,48.4v3h0.1c0.7-1.2,1.7-2.1,2.9-2.7c1.2-0.6,2.4-0.8,3.6-0.8c1.6,0,2.8,0.2,3.8,0.6
			c1,0.4,1.8,1,2.4,1.8c0.6,0.8,1,1.7,1.2,2.8c0.2,1.1,0.3,2.3,0.3,3.6v13.1H164v-12c0-1.8-0.3-3.1-0.8-3.9s-1.5-1.3-2.9-1.3
			c-1.6,0-2.7,0.5-3.5,1.4c-0.7,0.9-1.1,2.5-1.1,4.7v11.1h-5.8V48.4H155.4z"/>
		<path class="st0" d="M187.3,67c-0.7,1.2-1.6,2-2.7,2.5c-1.1,0.5-2.4,0.8-3.8,0.8c-1.6,0-3-0.3-4.2-0.9c-1.2-0.6-2.2-1.5-3-2.5
			c-0.8-1.1-1.4-2.3-1.8-3.6c-0.4-1.4-0.6-2.8-0.6-4.3c0-1.4,0.2-2.8,0.6-4.1c0.4-1.3,1-2.5,1.8-3.5c0.8-1,1.8-1.8,2.9-2.4
			c1.2-0.6,2.5-0.9,4.1-0.9c1.3,0,2.5,0.3,3.6,0.8c1.1,0.5,2,1.3,2.7,2.4h0.1V40.3h5.8v29.3h-5.5L187.3,67L187.3,67z M187.1,56.5
			c-0.2-0.8-0.4-1.5-0.8-2.1c-0.4-0.6-0.9-1.1-1.5-1.5c-0.6-0.4-1.4-0.6-2.4-0.6c-1,0-1.8,0.2-2.4,0.6c-0.7,0.4-1.2,0.9-1.6,1.5
			c-0.4,0.6-0.7,1.3-0.9,2.2c-0.2,0.8-0.3,1.7-0.3,2.5c0,0.8,0.1,1.6,0.3,2.5c0.2,0.8,0.5,1.6,0.9,2.2c0.4,0.6,1,1.2,1.6,1.6
			c0.6,0.4,1.4,0.6,2.3,0.6c1,0,1.8-0.2,2.4-0.6c0.6-0.4,1.2-0.9,1.5-1.5c0.4-0.6,0.7-1.4,0.8-2.2c0.2-0.8,0.2-1.7,0.2-2.5
			C187.3,58.1,187.3,57.3,187.1,56.5z"/>
		<path class="st0" d="M201.6,64.6c0.9,0.9,2.1,1.3,3.8,1.3c1.2,0,2.2-0.3,3-0.9c0.8-0.6,1.4-1.2,1.6-1.9h5.1
			c-0.8,2.5-2.1,4.4-3.8,5.5c-1.7,1.1-3.8,1.6-6.2,1.6c-1.7,0-3.2-0.3-4.5-0.8c-1.3-0.5-2.5-1.3-3.4-2.3c-0.9-1-1.7-2.2-2.2-3.5
			c-0.5-1.4-0.8-2.9-0.8-4.5c0-1.6,0.3-3.1,0.8-4.4c0.5-1.4,1.3-2.6,2.2-3.6c1-1,2.1-1.8,3.4-2.4c1.3-0.6,2.8-0.9,4.4-0.9
			c1.8,0,3.4,0.3,4.7,1c1.3,0.7,2.4,1.6,3.3,2.8c0.9,1.2,1.5,2.5,1.9,4c0.4,1.5,0.5,3.1,0.4,4.7h-15.3
			C200.3,62.4,200.8,63.7,201.6,64.6z M208.2,53.4c-0.7-0.8-1.8-1.2-3.2-1.2c-0.9,0-1.7,0.2-2.3,0.5c-0.6,0.3-1.1,0.7-1.5,1.2
			c-0.4,0.5-0.6,1-0.8,1.5c-0.2,0.5-0.2,1-0.3,1.4h9.5C209.4,55.3,208.9,54.2,208.2,53.4z"/>
		<path class="st0" d="M215.5,48.4h6.7l3.7,5.5l3.7-5.5h6.5l-7,9.9l7.9,11.3h-6.7l-4.4-6.7l-4.4,6.7h-6.5l7.6-11.2L215.5,48.4z"/>
	</g>
	<g>
		<path class="st0" d="M122.2,54.3c-0.4-0.6-0.9-1.1-1.5-1.5c-0.6-0.4-1.4-0.6-2.4-0.6c-1,0-1.8,0.2-2.4,0.6
			c-0.7,0.4-1.2,0.9-1.6,1.5c-0.4,0.6-0.7,1.3-0.9,2.2c-0.2,0.8-0.3,1.7-0.3,2.5c0,0.8,0.1,1.6,0.3,2.5c0.2,0.8,0.5,1.6,0.9,2.2
			c0.4,0.6,1,1.2,1.6,1.6c0.6,0.4,1.4,0.6,2.3,0.6c1,0,1.8-0.2,2.4-0.6c0.6-0.4,1.2-0.9,1.5-1.5c0.4-0.6,0.7-1.4,0.8-2.2
			c0.2-0.8,0.2-1.7,0.2-2.5c0-0.9-0.1-1.7-0.2-2.5C122.9,55.6,122.6,54.9,122.2,54.3z"/>
		<polygon class="st0" points="93.9,47.6 90,58.3 97.6,58.3 93.9,47.6 		"/>
		<path class="st0" d="M131.7,27.1H78.1c0,0-4.6,0-4.6,4.6v47.2c0,0,0,4.6,4.6,4.6h53.6c0,0,4.6,0,4.6-4.6V31.7
			C136.3,31.7,136.3,27.1,131.7,27.1z M101.5,69.7l-2.2-6.5h-11l-2.3,6.5h-6.5l11.1-29.3h6.6l11,29.3H101.5z M128.9,69.7h-5.5V67
			h-0.1c-0.7,1.2-1.6,2-2.7,2.5c-1.1,0.5-2.4,0.8-3.8,0.8c-1.6,0-3-0.3-4.2-0.9c-1.2-0.6-2.2-1.5-3-2.5c-0.8-1.1-1.4-2.3-1.8-3.6
			c-0.4-1.4-0.6-2.8-0.6-4.3c0-1.4,0.2-2.8,0.6-4.1c0.4-1.3,1-2.5,1.8-3.5c0.8-1,1.8-1.8,2.9-2.4c1.2-0.6,2.5-0.9,4.1-0.9
			c1.3,0,2.5,0.3,3.6,0.8c1.1,0.5,2,1.3,2.7,2.4h0.1V40.3h5.8V69.7z"/>
	</g>
</g>
<g>
	<path class="st0" d="M209.3,110.6c5.7-0.8,11.4-1.8,17.2-1.9c0.9,0,2,0.3,2.7-0.2c0.6-0.4,0.6-1.6,0.9-2.4c1.9-5.2,6-8.4,11.5-8.9
		c-0.7,5.3-3.2,9.3-8.4,11.3c0,0.1,0.1,0.2,0.1,0.2c2.6-0.2,5.3-0.3,8-0.5c0.1-6.8,3.3-11.2,9.8-13.2c0.3,5.5-1.7,9.7-6.4,12.5
		c0,0.1,0.1,0.1,0.1,0.2c2.5-0.7,4.9-1.3,7.5-2c-1.5-6.5,0.3-11.5,5.9-14.9c1.9,4.2,1,8.1-2.7,13.7c2.2-1.2,4.3-2.4,6.6-3.6
		c-3-5.7-2.3-10.8,2.1-15.5c2.7,4.4,3.2,8.7,0.6,13.3c1.9-1.5,3.6-2.9,5.4-4.3c-3.9-5.2-4.2-10.3-0.6-15.6c1.6,1.8,2.8,3.8,3.3,6.1
		c0.5,2.3,0.2,4.6-0.7,6.8c0.1,0,0.1,0.1,0.2,0.1c1.3-1.7,2.7-3.4,4-5.2c-4.6-4-5.9-8.7-3.7-14.5c3.9,2.8,5.9,6.5,5.6,11.4
		c0.9-1.7,1.8-3.5,2.7-5.3c-5.1-3.2-7.1-7.6-5.8-13.4c3.9,1.6,6.8,5.4,7.1,10.2c0.6-1.8,1.1-3.5,1.7-5.4c-3.2-1.4-5.8-3.4-7-6.9
		c-0.6-1.8-0.7-3.6-0.6-5.4c3.3,1,7,3.2,8.2,9c0.1-0.4,0.2-0.7,0.3-1c0.2-1.5,0.4-2.9,0.6-4.5c-5.6-1.4-8.8-4.9-9.2-10.8
		c2.1,0.3,4,1,5.6,2.3c1.7,1.3,2.8,3,3.7,4.9c0-1.7,0-3.3-0.1-5c-5.7-0.4-10.4-4-10.7-8c2.8-0.4,6.5-0.1,10.2,4.3
		c-0.3-1.5-0.6-3-0.9-4.5c-5.3,0.6-9.3-1.2-11.8-6.1c4.1-0.9,7.7-0.3,10.8,2.6c-0.5-1.3-0.9-2.5-1.4-3.8c-0.1-0.1-0.6-0.1-0.8-0.1
		c-1.9,0.4-3.8,0.6-5.6,0.1c-2.5-0.7-4.3-2.2-5.9-4.2c2.5-1.8,6.3-1.5,10.8,0.7c-0.7-1.3-1.4-2.5-2.1-3.7c-4.9,2.1-9.1,1.3-12.8-2.8
		c1.1-0.4,2.1-0.9,3.1-1.3c-3.8-0.3-5.1-0.8-7.4-2.6c3-2.4,6.4-3.3,10.2-2.2c-0.9-0.8-1.7-1.7-2.6-2.5c-4,3.2-8.2,3.6-12.5,0.7
		c2.2-2,4.6-3.3,7.6-3.2c-5.5-1.8-8.5-5.7-9.4-11.3c5.3,0.4,9.1,2.8,11.5,7.6c-0.2-2.6,0.5-4.9,1.9-7c3.2,2.9,4.1,6.7,2.5,10.3
		c-0.7,1.7-0.6,2.7,0.9,3.6c0.4,0.2,0.6,0.6,1.1,0.9c-1.2-3.7-0.4-7,1.9-10c3,3.1,3.5,7.7,1.2,11.7c-0.6,1-0.5,1.6,0.2,2.3
		c0.6,0.6,1,1.3,1.7,2.2c-0.8-4.2,0.7-7.4,3.6-10.1c1.6,3,2.2,6,0.8,9.1c-0.5,1.2-1.4,2.2-2.1,3.3c-0.2,0.3-0.3,0.7-0.2,0.9
		c0.6,1.2,1.3,2.3,2,3.4c-0.5-4.2,1.3-7.4,4.6-9.9c2.2,4.1,1.4,8.9-2.2,12.3c-0.8,0.7-0.9,1.3-0.5,2.2c0.5,0.9,0.7,1.9,1.2,3.1
		c0.3-2.1,0.7-4,1.9-5.6c1.2-1.6,2.7-2.8,4.4-3.7c1.5,4.4-0.1,9.1-4.3,11.9c-0.8,0.5-1.2,0.9-0.9,2c0.4,1.2,0.4,2.5,0.7,3.9
		c0.9-4.5,3.7-7.2,8-8.6c0.3,3-0.4,5.6-2.2,7.9c-1.3,1.7-2.9,2.8-4.8,3.7c-0.3,0.1-0.7,0.5-0.7,0.8c0,1.5,0.1,3,0.2,4.7
		c2.1-4.1,5.4-5.9,9.8-6.3c-0.5,2.8-1.5,5.2-3.6,7.1c-1.6,1.4-3.6,2.2-5.6,2.6c-0.7,0.1-0.9,0.4-0.9,1.1c-0.1,1.4-0.4,2.8-0.5,4.3
		c2.7-3.7,6.3-5,10.8-4.7c-1.1,3.2-2.8,5.9-6,7.2c-1.5,0.6-3.2,0.8-4.8,1.1c-0.7,0.1-1,0.3-1.2,1c-0.4,1.5-0.9,3-1.4,4.8
		c3.4-3.6,7.3-4.5,11.9-3.4c-1.3,2.5-2.9,4.5-5.4,5.7s-5.1,1.3-7.8,0.9c-1,1.9-1.9,3.7-3,5.8c4-3.4,8.2-3.7,12.7-1.9
		c-2.2,3.1-4.9,5.2-8.8,5.4c-1.6,0.1-3.3-0.3-5-0.5c-0.6-0.1-1,0-1.4,0.5c-1,1.5-2.2,2.9-3.4,4.6c4.6-2.3,8.8-1.6,12.8,1.1
		c-3.1,3.2-7.6,4.3-11.5,3.1c-1.1-0.4-2.1-0.9-3.2-1.3c-0.3-0.1-0.8-0.1-1,0.1c-1.6,1.4-3.2,2.8-5,4.4c5.1-1.6,9.3-0.4,13.1,3.2
		c-3.6,2.2-7.3,3.1-11.2,1.5c-1.4-0.6-2.7-1.6-4.1-2.3c-0.3-0.2-0.8-0.3-1-0.1c-1.8,1-3.6,2.1-5.6,3.3c5.2-0.1,8.8,2.2,11.5,6.4
		c-5,1.9-10.7,1.1-15.2-4.9c-2.4,0.7-4.9,1.4-7.5,2.1c5.3,1.2,8.4,4.5,9.9,9.5c-4.5,0.2-8.3-1-11.1-4.5c-0.9-1.1-1.5-2.5-2.3-3.8
		c-0.2-0.3-0.6-0.6-0.8-0.6c-2.5,0.2-4.9,0.4-7.6,0.7c5,2.1,7.5,5.9,8.2,11.2c-4.2-0.5-7.7-2.1-9.9-5.7c-0.9-1.5-1.5-3.1-2-4.8
		c-0.2-0.6-0.4-0.8-1.1-0.8c-5,0-9.9,1-14.8,2 M276.1,26.6c-0.8-1-1.6-2.1-2.4-3c-1.3,0.6-2.6,1.2-3.9,1.8
		C272.1,25.1,274.1,25.7,276.1,26.6z"/>
</g>
<g>
	<path class="st0" d="M88.8,112.5c-4.9-1-9.8-2-14.8-2c-0.6,0-0.8,0.1-1.1,0.8c-0.6,1.6-1.1,3.3-2,4.8c-2.2,3.6-5.7,5.2-9.9,5.7
		c0.7-5.3,3.2-9.1,8.2-11.2c-2.6-0.2-5.1-0.5-7.6-0.7c-0.3,0-0.6,0.3-0.8,0.6c-0.8,1.2-1.4,2.6-2.3,3.8c-2.8,3.6-6.7,4.7-11.1,4.5
		c1.6-5,4.6-8.3,9.9-9.5c-2.7-0.8-5.1-1.4-7.5-2.1c-4.5,6-10.2,6.7-15.2,4.9c2.6-4.2,6.3-6.5,11.5-6.4c-2-1.2-3.8-2.3-5.6-3.3
		c-0.2-0.1-0.7,0-1,0.1c-1.4,0.8-2.6,1.7-4.1,2.3c-4,1.6-7.7,0.7-11.2-1.5c3.8-3.6,8-4.8,13.1-3.2c-1.8-1.6-3.3-3-5-4.4
		c-0.2-0.2-0.7-0.2-1-0.1c-1.1,0.4-2.1,0.9-3.2,1.3c-3.9,1.3-8.4,0.1-11.5-3.1c4-2.7,8.2-3.4,12.8-1.1C28.1,91,27,89.6,26,88.1
		c-0.4-0.6-0.8-0.6-1.4-0.5c-1.6,0.3-3.3,0.6-5,0.5c-3.8-0.2-6.5-2.3-8.8-5.4c4.6-1.8,8.8-1.5,12.7,1.9c-1.1-2.1-2-4-3-5.8
		c-2.7,0.4-5.3,0.3-7.8-0.9c-2.5-1.3-4.2-3.3-5.4-5.8c4.6-1,8.5-0.2,11.9,3.4c-0.5-1.8-1-3.3-1.4-4.8c-0.2-0.7-0.5-0.8-1.2-1
		c-1.6-0.3-3.3-0.5-4.8-1.1c-3.2-1.3-4.9-4-6-7.2c4.5-0.3,8.2,1,10.8,4.7c-0.1-1.5-0.4-2.9-0.5-4.3c-0.1-0.7-0.2-0.9-0.9-1.1
		c-2.1-0.4-4-1.2-5.6-2.6C7.5,56.2,6.5,53.8,6,51c4.4,0.4,7.7,2.2,9.8,6.3c0.1-1.7,0.2-3.2,0.2-4.7c0-0.3-0.4-0.6-0.7-0.8
		c-1.9-0.8-3.5-2-4.8-3.7c-1.8-2.3-2.5-4.9-2.2-7.9c4.3,1.4,7.1,4.1,8,8.6c0.3-1.3,0.4-2.6,0.7-3.9c0.3-1.1-0.1-1.5-0.9-2
		c-4.2-2.9-5.8-7.5-4.3-11.9c1.7,0.9,3.3,2.1,4.4,3.7c1.2,1.6,1.6,3.5,1.9,5.6c0.4-1.2,0.7-2.2,1.2-3.1c0.5-0.9,0.3-1.5-0.5-2.2
		c-3.6-3.5-4.4-8.2-2.2-12.3c3.3,2.5,5,5.7,4.6,9.9c0.7-1.1,1.4-2.3,2-3.4c0.1-0.2,0-0.7-0.2-0.9c-0.7-1.1-1.5-2.1-2.1-3.3
		c-1.4-3.1-0.8-6.2,0.8-9.1c2.9,2.7,4.4,5.8,3.6,10.1c0.7-0.9,1.2-1.6,1.7-2.2c0.8-0.7,0.8-1.3,0.2-2.3c-2.3-4-1.8-8.5,1.2-11.7
		c2.3,3,3.2,6.3,1.9,10c0.4-0.3,0.7-0.6,1.1-0.9c1.4-0.9,1.6-2,0.9-3.6c-1.5-3.6-0.7-7.4,2.5-10.3c1.4,2.1,2.1,4.4,1.9,7
		c2.3-4.8,6.2-7.2,11.5-7.6c-0.9,5.7-3.9,9.5-9.4,11.3c3-0.1,5.5,1.2,7.6,3.2c-4.4,2.9-8.5,2.5-12.5-0.7c-0.9,0.9-1.8,1.7-2.6,2.5
		c3.8-1.2,7.2-0.3,10.2,2.2c-2.3,1.8-3.6,2.3-7.4,2.6c1,0.4,2,0.8,3.1,1.3c-3.7,4-7.9,4.9-12.8,2.8c-0.7,1.2-1.3,2.4-2.1,3.7
		c4.6-2.2,8.3-2.4,10.8-0.7c-1.6,2-3.4,3.6-5.9,4.2c-1.9,0.5-3.8,0.4-5.6-0.1c-0.3-0.1-0.8-0.1-0.8,0.1c-0.5,1.2-1,2.5-1.4,3.8
		c3.2-2.9,6.7-3.6,10.8-2.6c-2.5,4.9-6.4,6.8-11.8,6.1c-0.4,1.5-0.7,3-1,4.5c3.7-4.4,7.4-4.7,10.2-4.3c-0.2,3.9-5,7.5-10.7,8
		c0,1.7,0,3.3-0.1,5c0.9-1.9,2.1-3.6,3.7-4.9c1.7-1.3,3.5-2,5.6-2.3c-0.4,5.9-3.6,9.4-9.2,10.8c0.2,1.6,0.4,3,0.6,4.5
		c0,0.3,0.2,0.6,0.3,1c1.2-5.8,4.9-8,8.2-9c0.1,1.9,0,3.7-0.6,5.4c-1.2,3.4-3.8,5.4-7,6.9c0.6,1.9,1.2,3.6,1.7,5.4
		c0.3-4.8,3.2-8.6,7.1-10.2c1.3,5.8-0.6,10.3-5.8,13.4c0.9,1.8,1.8,3.5,2.7,5.3c-0.3-5,1.7-8.6,5.6-11.4c2.2,5.7,0.9,10.5-3.7,14.5
		c1.4,1.8,2.7,3.5,4,5.2c0.1,0,0.1-0.1,0.2-0.1c-0.8-2.2-1.2-4.4-0.7-6.8c0.5-2.3,1.7-4.3,3.3-6.1c3.6,5.3,3.3,10.4-0.6,15.6
		c1.8,1.4,3.6,2.8,5.4,4.3c-2.6-4.6-2.1-9,0.6-13.3c4.4,4.7,5,9.8,2.1,15.5c2.2,1.2,4.4,2.4,6.6,3.6c-3.7-5.5-4.6-9.5-2.7-13.7
		c5.6,3.5,7.4,8.5,5.9,14.9c2.5,0.7,5,1.3,7.5,2c0-0.1,0.1-0.1,0.1-0.2c-4.7-2.8-6.7-7.1-6.4-12.5c6.5,2.1,9.6,6.5,9.8,13.2
		c2.7,0.2,5.3,0.3,8,0.5c0-0.1,0.1-0.2,0.1-0.2c-5.2-2-7.7-6-8.4-11.3c5.5,0.4,9.6,3.6,11.5,8.9c0.3,0.8,0.3,2,0.9,2.4
		s1.8,0.1,2.7,0.2c5.8,0.1,11.5,1.1,17.2,1.9 M32.6,25.4c-1.3-0.6-2.5-1.2-3.9-1.8c-0.8,1-1.6,2-2.4,3
		C28.3,25.7,30.3,25.1,32.6,25.4z"/>
</g>
</svg>
