<?xml version="1.0" encoding="utf-8"?>
<!-- Generator: Adobe Illustrator 20.0.0, SVG Export Plug-In . SVG Version: 6.00 Build 0)  -->
<svg version="1.1" id="Слой_1" xmlns="http://www.w3.org/2000/svg" xmlns:xlink="http://www.w3.org/1999/xlink" x="0px" y="0px"
	 viewBox="0 0 301.7 125.3" style="enable-background:new 0 0 301.7 125.3;" xml:space="preserve">
<style type="text/css">
	.st0{fill:#FFFFFF;}
</style>
<g>
	<path class="st0" d="M111.9,50.5l1.4-17.4c0.6-0.1,1.3-0.2,2.2-0.2c0.9,0,1.6,0.1,2.1,0.2l2.1,7.3c0.5,1.6,0.8,3.1,1,4.3h0.2
		c0.2-1.2,0.5-2.7,1-4.3l2.1-7.3c0.6-0.1,1.3-0.2,2.1-0.2c0.8,0,1.5,0.1,2.1,0.2l1.4,17.4c-0.4,0.1-0.9,0.2-1.5,0.2
		c-0.6,0-1.1,0-1.6-0.1l-0.5-8.5c-0.1-1.6-0.2-3.4-0.2-5.5h-0.2l-3.1,11.3c-0.5,0.1-1.1,0.1-1.7,0.1c-0.6,0-1.1,0-1.6-0.1l-3.1-11.3
		h-0.2c-0.1,2.5-0.2,4.4-0.2,5.5l-0.5,8.5c-0.4,0.1-0.9,0.1-1.5,0.1C112.8,50.7,112.3,50.6,111.9,50.5"/>
	<path class="st0" d="M137.5,39.9c-1.6,0-2.4,1.4-2.4,4.3s0.8,4.3,2.4,4.3c1.6,0,2.4-1.4,2.4-4.3S139.1,39.9,137.5,39.9 M143.2,44.2
		c0,2.3-0.6,4-1.8,5.3c-1,1-2.3,1.5-3.9,1.5c-1.6,0-2.9-0.5-3.9-1.5c-1.2-1.2-1.8-3-1.8-5.3c0-2.3,0.6-4,1.8-5.3
		c1-1,2.3-1.5,3.9-1.5c1.6,0,2.9,0.5,3.9,1.5C142.6,40.1,143.2,41.9,143.2,44.2"/>
	<path class="st0" d="M150.2,48.1l2.7-10.2c0.4-0.1,0.8-0.1,1.4-0.1c0.5,0,1,0.1,1.4,0.2l0.1,0.2c-1.7,5.6-2.9,9.8-3.8,12.4
		c-0.7,0.1-1.4,0.2-2.2,0.2c-0.8,0-1.3-0.1-1.6-0.3c-0.3-0.2-0.6-0.7-0.8-1.3L144,38.1c0.7-0.3,1.3-0.5,1.8-0.5
		c0.9,0,1.5,0.5,1.8,1.4l1.5,5.3c0.1,0.4,0.4,1.6,0.8,3.5C149.9,48,150,48.1,150.2,48.1"/>
	<path class="st0" d="M162.4,39.8c-1.4,0-2.2,1.1-2.3,3.2h4.5v-0.3c0-0.9-0.2-1.5-0.5-2.1C163.7,40,163.1,39.8,162.4,39.8
		 M167.3,45.2h-7.2c0.1,1,0.3,1.8,0.7,2.3c0.4,0.6,1.1,0.8,2.1,0.8c1,0,2.1-0.3,3.4-0.9c0.5,0.5,0.8,1.1,0.9,1.9
		c-1.4,1-3,1.5-4.9,1.5s-3.3-0.6-4.1-1.9c-0.8-1.2-1.3-2.9-1.3-4.8c0-2,0.5-3.6,1.4-4.8c0.9-1.2,2.2-1.9,4-1.9c1.7,0,3,0.5,4,1.5
		c0.9,1,1.4,2.3,1.4,3.9C167.6,43.7,167.5,44.5,167.3,45.2"/>
	<path class="st0" d="M178.7,35.4v5.8c1.2,0,2.1-0.1,2.5-0.1c1.9,0,2.8-0.9,2.8-2.8c0-1.9-0.9-2.8-2.8-2.8
		C180,35.5,179.2,35.4,178.7,35.4 M187.3,38.3c0,1.1-0.3,2.1-0.9,3c-0.6,0.8-1.4,1.4-2.3,1.7c0.8,0.3,1.5,1,1.9,2.2l1,2.7
		c0.3,0.9,0.7,1.5,1.2,1.8c-0.5,0.7-1.2,1-2.2,1c-0.6,0-1-0.1-1.3-0.4c-0.3-0.3-0.5-0.8-0.8-1.5l-1.2-3.1c-0.2-0.6-0.5-1.1-0.9-1.4
		c-0.4-0.3-0.9-0.5-1.6-0.5h-1.7v6.8c-0.4,0.1-1,0.1-1.6,0.1c-0.7,0-1.2,0-1.6-0.1V33.2l0.2-0.2c2.7-0.1,4.6-0.1,5.7-0.1
		c1.8,0,3.3,0.5,4.4,1.4C186.8,35.2,187.3,36.6,187.3,38.3"/>
	<path class="st0" d="M195.3,39.8c-1.4,0-2.2,1.1-2.3,3.2h4.5v-0.3c0-0.9-0.2-1.5-0.5-2.1C196.6,40,196,39.8,195.3,39.8 M200.2,45.2
		H193c0.1,1,0.3,1.8,0.7,2.3c0.4,0.6,1.1,0.8,2.1,0.8c1,0,2.1-0.3,3.4-0.9c0.5,0.5,0.8,1.1,0.9,1.9c-1.4,1-3,1.5-4.9,1.5
		c-1.9,0-3.3-0.6-4.1-1.9c-0.8-1.2-1.3-2.9-1.3-4.8c0-2,0.5-3.6,1.4-4.8c0.9-1.2,2.2-1.9,4-1.9c1.7,0,3,0.5,4,1.5
		c0.9,1,1.4,2.3,1.4,3.9C200.5,43.7,200.4,44.5,200.2,45.2"/>
	<path class="st0" d="M207.2,48.5c0.9,0,1.7-0.4,2.6-1.2V45c-0.6-0.1-1.2-0.1-1.9-0.1c-0.7,0-1.2,0.2-1.6,0.5
		c-0.4,0.4-0.5,0.8-0.5,1.4c0,0.5,0.1,1,0.4,1.3C206.3,48.3,206.7,48.5,207.2,48.5 M213.6,49.1c-0.1,0.3-0.2,0.6-0.4,0.9
		c-0.2,0.3-0.4,0.6-0.7,0.7c-1.1-0.1-1.8-0.6-2.3-1.5c-1.1,1.1-2.3,1.6-3.7,1.6c-1.3,0-2.3-0.4-3-1.2c-0.7-0.8-1-1.7-1-2.7
		c0-1.4,0.5-2.5,1.4-3.2c0.9-0.7,2.1-1.1,3.6-1.1c0.8,0,1.5,0,2.2,0.1v-0.8c0-1.3-0.6-2-1.9-2c-0.9,0-2.2,0.3-3.9,0.9
		c-0.5-0.5-0.8-1.3-0.8-2.3c1.8-0.8,3.7-1.2,5.5-1.2c1.3,0,2.3,0.4,3.1,1.1c0.8,0.7,1.2,1.8,1.2,3.3v5.2
		C212.9,48,213.1,48.7,213.6,49.1"/>
	<path class="st0" d="M220.5,48.2h0.8c0.2,0.5,0.3,1,0.3,1.4c0,0.4,0,0.7-0.1,0.9c-1,0.2-1.8,0.2-2.4,0.2c-1.8,0-2.8-1-2.8-3V31.9
		l0.2-0.2h1.2c0.6,0,1.1,0.2,1.3,0.4c0.3,0.3,0.4,0.8,0.4,1.5V47C219.5,47.8,219.8,48.2,220.5,48.2"/>
	<path class="st0" d="M230.5,37.8c0.1,0.3,0.1,0.7,0.1,1.2c0,0.4,0,0.8-0.1,1.1l-3.1-0.1v7c0,0.8,0.4,1.2,1.1,1.2h1.6
		c0.2,0.5,0.3,1,0.3,1.4c0,0.4,0,0.7-0.1,0.9c-1.1,0.2-2.1,0.2-3,0.2c-2,0-3-1-3-3v-7.6l-1.9,0c-0.1-0.3-0.1-0.7-0.1-1.1
		c0-0.4,0-0.8,0.1-1.2l1.9,0.1v-1.9c0-0.7,0.1-1.2,0.4-1.5c0.3-0.3,0.7-0.4,1.3-0.4h1.2l0.2,0.2v3.7L230.5,37.8z"/>
	<path class="st0" d="M243.4,38.1l-3.3,12c-0.6,2.1-1.3,3.6-2.1,4.5c-0.8,1-2.1,1.4-3.8,1.4c-0.9,0-1.8-0.2-2.7-0.5v-0.4
		c0-0.2,0.1-0.5,0.2-0.9c0.1-0.4,0.3-0.7,0.5-1c0.7,0.2,1.4,0.4,2.1,0.4c1.3,0,2.3-0.9,2.8-2.7l0.1-0.3c-0.6,0-1.1-0.1-1.5-0.4
		c-0.4-0.2-0.6-0.6-0.8-1.1l-3.2-11.1c0.7-0.3,1.3-0.5,1.9-0.5c0.8,0,1.3,0.5,1.6,1.4l1.5,5.5c0.1,0.2,0.3,1.4,0.8,3.6
		c0,0.1,0.1,0.2,0.2,0.2l2.6-10.5c0.4-0.1,0.9-0.1,1.4-0.1c0.6,0,1.1,0.1,1.5,0.2L243.4,38.1z"/>
	<path class="st0" d="M115.9,72.2l1.2,0h2.3c0.1,0,0.2,0,0.5,0c0.3,0,0.5,0,0.6,0l-0.9-2.9c-0.5-1.5-0.9-3.1-1.4-4.9h-0.1
		c-0.2,1-0.6,2.4-1.1,4.1L115.9,72.2z M121.3,74.8l-1.3,0h-3.6l-1.3,0l-1.3,4c-0.3,0.1-0.8,0.1-1.5,0.1c-0.6,0-1.1-0.1-1.5-0.2
		l-0.1-0.2l5.7-17.3c0.6-0.1,1.2-0.1,1.9-0.1c0.7,0,1.3,0.1,1.8,0.2l5.7,17.3c-0.5,0.3-1.1,0.4-1.7,0.4c-0.6,0-1.1-0.1-1.4-0.4
		c-0.3-0.2-0.5-0.7-0.7-1.4L121.3,74.8z"/>
	<path class="st0" d="M128.9,77.3l-2.6-11c0.6-0.3,1.2-0.4,1.7-0.4c0.5,0,0.9,0.1,1.1,0.3c0.2,0.2,0.4,0.5,0.5,1l1,4.9
		c0.4,1.6,0.6,3,0.8,4.1c0,0.1,0.1,0.2,0.2,0.2l1.9-10.2c0.4-0.1,1-0.2,1.9-0.2s1.5,0.1,1.9,0.2l1.8,10c0,0.1,0.1,0.2,0.2,0.2
		c0.4-2.3,0.7-3.8,0.8-4.4l1.3-6c0.4-0.1,0.9-0.1,1.5-0.1c0.6,0,1.1,0.1,1.4,0.3l0.1,0.2l-3.1,12.4c-0.5,0.1-1.2,0.1-2.1,0.1
		c-0.9,0-1.5-0.1-1.8-0.3c-0.3-0.2-0.5-0.6-0.6-1.3l-0.6-3.3c-0.3-1.7-0.6-3.4-0.8-5.1h-0.2c-0.2,1.1-0.5,2.8-0.9,5.1l-0.9,4.7
		c-0.6,0.1-1.3,0.1-2.1,0.1s-1.4-0.1-1.7-0.3C129.2,78.4,129,77.9,128.9,77.3"/>
	<path class="st0" d="M150.1,76.7c0.9,0,1.7-0.4,2.6-1.2v-2.3c-0.6-0.1-1.2-0.1-1.9-0.1c-0.7,0-1.2,0.2-1.6,0.5s-0.5,0.8-0.5,1.4
		c0,0.5,0.1,1,0.4,1.3C149.3,76.6,149.7,76.7,150.1,76.7 M156.6,77.3c-0.1,0.3-0.2,0.6-0.4,0.9c-0.2,0.3-0.4,0.6-0.7,0.7
		c-1.1-0.1-1.8-0.6-2.3-1.5c-1.1,1.1-2.3,1.6-3.7,1.6c-1.3,0-2.3-0.4-3-1.2c-0.7-0.8-1-1.7-1-2.7c0-1.4,0.5-2.5,1.4-3.2
		c0.9-0.7,2.1-1.1,3.6-1.1c0.8,0,1.5,0,2.2,0.1v-0.8c0-1.3-0.6-2-1.9-2c-0.9,0-2.2,0.3-3.9,0.9c-0.5-0.5-0.8-1.3-0.8-2.3
		c1.8-0.8,3.7-1.2,5.5-1.2c1.3,0,2.3,0.4,3.1,1.1c0.8,0.7,1.2,1.8,1.2,3.3v5.2C155.8,76.3,156.1,77,156.6,77.3"/>
	<path class="st0" d="M158.6,67.6c0.1-0.3,0.2-0.6,0.4-0.9c0.2-0.3,0.4-0.6,0.7-0.7c1.3,0.2,2.2,1,2.7,2.3c0.7-1.5,1.8-2.3,3.3-2.3
		c0.4,0,0.9,0.1,1.5,0.2c0,1.1-0.3,2.1-0.8,3c-0.3-0.1-0.6-0.1-1.2-0.2c-1,0-1.9,0.6-2.5,1.7v8.2c-0.5,0.1-1,0.1-1.6,0.1
		c-0.6,0-1.1,0-1.6-0.1v-8.6C159.6,69,159.3,68.1,158.6,67.6"/>
	<path class="st0" d="M173.3,76.5c0.9,0,1.7-0.5,2.4-1.4v-6c-0.9-0.5-1.6-0.8-2.3-0.8c-0.6,0-1.2,0.4-1.6,1.1
		c-0.4,0.7-0.6,1.8-0.6,3.1c0,1.3,0.2,2.3,0.6,3C172.2,76.2,172.7,76.5,173.3,76.5 M172.5,79.1c-1.4,0-2.5-0.6-3.3-1.8
		c-0.8-1.2-1.2-2.8-1.2-4.9c0-2.1,0.5-3.7,1.5-4.9c1-1.2,2.2-1.8,3.5-1.8c0.9,0,1.8,0.2,2.7,0.7v-6.5l0.2-0.2h1.2
		c0.6,0,1.1,0.1,1.3,0.4c0.3,0.3,0.4,0.8,0.4,1.5v13.2c0,1.1,0.2,1.8,0.7,2.2c-0.1,0.3-0.2,0.6-0.4,0.9c-0.2,0.3-0.4,0.6-0.7,0.7
		c-1.1-0.2-1.8-0.7-2.3-1.5C175.1,78.6,173.9,79.1,172.5,79.1"/>
	<path class="st0" d="M181.3,77.9c0-0.3,0.1-0.7,0.3-1.2c0.2-0.4,0.4-0.8,0.7-1c1.4,0.7,2.6,1.1,3.6,1.1c0.6,0,1.1-0.1,1.4-0.4
		s0.5-0.6,0.5-0.9c0-0.7-0.5-1.2-1.4-1.5l-1.4-0.5c-2.2-0.8-3.2-2-3.2-3.7c0-1.2,0.4-2.2,1.3-2.9c0.9-0.7,2-1.1,3.5-1.1
		c1.4,0,2.9,0.3,4.3,1c0,0.4-0.1,0.8-0.2,1.3c-0.2,0.4-0.4,0.8-0.7,1c-1.3-0.6-2.4-0.9-3.5-0.9c-0.5,0-0.9,0.1-1.1,0.3
		c-0.3,0.2-0.4,0.5-0.4,0.9c0,0.5,0.5,1,1.4,1.3l1.6,0.6c2.2,0.8,3.3,2.1,3.3,3.9c0,1.2-0.5,2.2-1.4,2.9s-2.2,1.1-3.8,1.1
		C184.4,79.1,182.8,78.7,181.3,77.9"/>
	<path class="st0" d="M96.4,51.5c-4.1-4.1-21.1-21.1-21.1-21.1S58.5,47.2,54.1,51.6c-4.4,4.4,0.1,8.2,0.1,8.2l21.1-21.1l21.1,21.1
		C96.3,59.8,100.4,55.6,96.4,51.5"/>
	<path class="st0" d="M67.6,53.3V55h5.9v-5.9h-1.3C69.9,49.1,67.6,51,67.6,53.3"/>
	<path class="st0" d="M77.7,49.1h-2.2V55h5.9v-1.8C81.3,51,79.9,49.1,77.7,49.1"/>
	<path class="st0" d="M67.6,58.8c0,2.2,2.3,4.1,4.5,4.1h1.3V57h-5.9V58.8z"/>
	<path class="st0" d="M75.4,62.9h2.2c2.2,0,3.7-1.9,3.7-4.1V57h-5.9V62.9z"/>
	<path class="st0" d="M85.7,62.4c-4.5,4.5-10.4,10.4-10.4,10.4L69.4,67l-4.2,4.2l10,10l4.2-4.2L94,62.4c0,0-1.7-2-4.2-2
		C88.6,60.4,87.2,60.9,85.7,62.4"/>
	<path class="st0" d="M85.7,62.4c-4.5,4.5-10.4,10.4-10.4,10.4L69.4,67l-4.2,4.2l10,10l4.2-4.2L94,62.4c0,0-1.7-2-4.2-2
		C88.6,60.4,87.2,60.9,85.7,62.4"/>
</g>
<g>
	<path class="st0" d="M209.8,111.1c5.7-0.8,11.4-1.8,17.2-1.9c0.9,0,2,0.3,2.7-0.2c0.6-0.4,0.6-1.6,0.9-2.4c1.9-5.2,6-8.4,11.5-8.9
		c-0.7,5.3-3.2,9.3-8.4,11.3c0,0.1,0.1,0.2,0.1,0.2c2.6-0.2,5.3-0.3,8-0.5c0.1-6.8,3.3-11.2,9.8-13.2c0.3,5.5-1.7,9.7-6.4,12.5
		c0,0.1,0.1,0.1,0.1,0.2c2.5-0.7,4.9-1.3,7.5-2c-1.5-6.5,0.3-11.5,5.9-14.9c1.9,4.2,1,8.1-2.7,13.7c2.2-1.2,4.3-2.4,6.6-3.6
		c-3-5.7-2.3-10.8,2.1-15.5c2.7,4.4,3.2,8.7,0.6,13.3c1.9-1.5,3.6-2.9,5.4-4.3c-3.9-5.2-4.2-10.3-0.6-15.6c1.6,1.8,2.8,3.8,3.3,6.1
		c0.5,2.3,0.2,4.6-0.7,6.8c0.1,0,0.1,0.1,0.2,0.1c1.3-1.7,2.7-3.4,4-5.2c-4.6-4-5.9-8.7-3.7-14.5c3.9,2.8,5.9,6.5,5.6,11.4
		c0.9-1.7,1.8-3.5,2.7-5.3c-5.1-3.2-7.1-7.6-5.8-13.4c3.9,1.6,6.8,5.4,7.1,10.2c0.6-1.8,1.1-3.5,1.7-5.4c-3.2-1.4-5.8-3.4-7-6.9
		c-0.6-1.8-0.7-3.6-0.6-5.4c3.3,1,7,3.2,8.2,9c0.1-0.4,0.2-0.7,0.3-1c0.2-1.5,0.4-2.9,0.6-4.5c-5.6-1.4-8.8-4.9-9.2-10.8
		c2.1,0.3,4,1,5.6,2.3c1.7,1.3,2.8,3,3.7,4.9c0-1.7,0-3.3-0.1-5c-5.7-0.4-10.4-4-10.7-8c2.8-0.4,6.5-0.1,10.2,4.3
		c-0.3-1.5-0.6-3-0.9-4.5c-5.3,0.6-9.3-1.2-11.8-6.1c4.1-0.9,7.7-0.3,10.8,2.6c-0.5-1.3-0.9-2.5-1.4-3.8c-0.1-0.1-0.6-0.1-0.8-0.1
		c-1.9,0.4-3.8,0.6-5.6,0.1c-2.5-0.7-4.3-2.2-5.9-4.2c2.5-1.8,6.3-1.5,10.8,0.7c-0.7-1.3-1.4-2.5-2.1-3.7c-4.9,2.1-9.1,1.3-12.8-2.8
		c1.1-0.4,2.1-0.9,3.1-1.3c-3.8-0.3-5.1-0.8-7.4-2.6c3-2.4,6.4-3.3,10.2-2.2c-0.9-0.8-1.7-1.7-2.6-2.5c-4,3.2-8.2,3.6-12.5,0.7
		c2.2-2,4.6-3.3,7.6-3.2c-5.5-1.8-8.5-5.7-9.4-11.3c5.3,0.4,9.1,2.8,11.5,7.6c-0.2-2.6,0.5-4.9,1.9-7c3.2,2.9,4.1,6.7,2.5,10.3
		c-0.7,1.7-0.6,2.7,0.9,3.6c0.4,0.2,0.6,0.6,1.1,0.9c-1.2-3.7-0.4-7,1.9-10c3,3.1,3.5,7.7,1.2,11.7c-0.6,1-0.5,1.6,0.2,2.3
		c0.6,0.6,1,1.3,1.7,2.2c-0.8-4.2,0.7-7.4,3.6-10.1c1.6,3,2.2,6,0.8,9.1c-0.5,1.2-1.4,2.2-2.1,3.3c-0.2,0.3-0.3,0.7-0.2,0.9
		c0.6,1.2,1.3,2.3,2,3.4c-0.5-4.2,1.3-7.4,4.6-9.9c2.2,4.1,1.4,8.9-2.2,12.3c-0.8,0.7-0.9,1.3-0.5,2.2c0.5,0.9,0.7,1.9,1.2,3.1
		c0.3-2.1,0.7-4,1.9-5.6c1.2-1.6,2.7-2.8,4.4-3.7c1.5,4.4-0.1,9.1-4.3,11.9c-0.8,0.5-1.2,0.9-0.9,2c0.4,1.2,0.4,2.5,0.7,3.9
		c0.9-4.5,3.7-7.2,8-8.6c0.3,3-0.4,5.6-2.2,7.9c-1.3,1.7-2.9,2.8-4.8,3.7c-0.3,0.1-0.7,0.5-0.7,0.8c0,1.5,0.1,3,0.2,4.7
		c2.1-4.1,5.4-5.9,9.8-6.3c-0.5,2.8-1.5,5.2-3.6,7.1c-1.6,1.4-3.6,2.2-5.6,2.6c-0.7,0.1-0.9,0.4-0.9,1.1c-0.1,1.4-0.4,2.8-0.5,4.3
		c2.7-3.7,6.3-5,10.8-4.7c-1.1,3.2-2.8,5.9-6,7.2c-1.5,0.6-3.2,0.8-4.8,1.1c-0.7,0.1-1,0.3-1.2,1c-0.4,1.5-0.9,3-1.4,4.8
		c3.4-3.6,7.3-4.5,11.9-3.4c-1.3,2.5-2.9,4.5-5.4,5.7s-5.1,1.3-7.8,0.9c-1,1.9-1.9,3.7-3,5.8c4-3.4,8.2-3.7,12.7-1.9
		c-2.2,3.1-4.9,5.2-8.8,5.4c-1.6,0.1-3.3-0.3-5-0.5c-0.6-0.1-1,0-1.4,0.5c-1,1.5-2.2,2.9-3.4,4.6c4.6-2.3,8.8-1.6,12.8,1.1
		c-3.1,3.2-7.6,4.3-11.5,3.1c-1.1-0.4-2.1-0.9-3.2-1.3c-0.3-0.1-0.8-0.1-1,0.1c-1.6,1.4-3.2,2.8-5,4.4c5.1-1.6,9.3-0.4,13.1,3.2
		c-3.6,2.2-7.3,3.1-11.2,1.5c-1.4-0.6-2.7-1.6-4.1-2.3c-0.3-0.2-0.8-0.3-1-0.1c-1.8,1-3.6,2.1-5.6,3.3c5.2-0.1,8.8,2.2,11.5,6.4
		c-5,1.9-10.7,1.1-15.2-4.9c-2.4,0.7-4.9,1.4-7.5,2.1c5.3,1.2,8.4,4.5,9.9,9.5c-4.5,0.2-8.3-1-11.1-4.5c-0.9-1.1-1.5-2.5-2.3-3.8
		c-0.2-0.3-0.6-0.6-0.8-0.6c-2.5,0.2-4.9,0.4-7.6,0.7c5,2.1,7.5,5.9,8.2,11.2c-4.2-0.5-7.7-2.1-9.9-5.7c-0.9-1.5-1.5-3.1-2-4.8
		c-0.2-0.6-0.4-0.8-1.1-0.8c-5,0-9.9,1-14.8,2 M276.6,27.1c-0.8-1-1.6-2.1-2.4-3c-1.3,0.6-2.6,1.2-3.9,1.8
		C272.6,25.6,274.6,26.2,276.6,27.1z"/>
</g>
<g>
	<path class="st0" d="M89.3,113c-4.9-1-9.8-2-14.8-2c-0.6,0-0.8,0.1-1.1,0.8c-0.6,1.6-1.1,3.3-2,4.8c-2.2,3.6-5.7,5.2-9.9,5.7
		c0.7-5.3,3.2-9.1,8.2-11.2c-2.6-0.2-5.1-0.5-7.6-0.7c-0.3,0-0.6,0.3-0.8,0.6c-0.8,1.2-1.4,2.6-2.3,3.8c-2.8,3.6-6.7,4.7-11.1,4.5
		c1.6-5,4.6-8.3,9.9-9.5c-2.7-0.8-5.1-1.4-7.5-2.1c-4.5,6-10.2,6.7-15.2,4.9c2.6-4.2,6.3-6.5,11.5-6.4c-2-1.2-3.8-2.3-5.6-3.3
		c-0.2-0.1-0.7,0-1,0.1c-1.4,0.8-2.6,1.7-4.1,2.3c-4,1.6-7.7,0.7-11.2-1.5c3.8-3.6,8-4.8,13.1-3.2c-1.8-1.6-3.3-3-5-4.4
		c-0.2-0.2-0.7-0.2-1-0.1c-1.1,0.4-2.1,0.9-3.2,1.3c-3.9,1.3-8.4,0.1-11.5-3.1c4-2.7,8.2-3.4,12.8-1.1c-1.3-1.7-2.4-3.1-3.4-4.6
		c-0.4-0.6-0.8-0.6-1.4-0.5c-1.6,0.3-3.3,0.6-5,0.5c-3.8-0.2-6.5-2.3-8.8-5.4c4.6-1.8,8.8-1.5,12.7,1.9c-1.1-2.1-2-4-3-5.8
		c-2.7,0.4-5.3,0.3-7.8-0.9c-2.5-1.3-4.2-3.3-5.4-5.8c4.6-1,8.5-0.2,11.9,3.4c-0.5-1.8-1-3.3-1.4-4.8c-0.2-0.7-0.5-0.8-1.2-1
		c-1.6-0.3-3.3-0.5-4.8-1.1c-3.2-1.3-4.9-4-6-7.2c4.5-0.3,8.2,1,10.8,4.7c-0.1-1.5-0.4-2.9-0.5-4.3c-0.1-0.7-0.2-0.9-0.9-1.1
		c-2.1-0.4-4-1.2-5.6-2.6C8,56.7,7,54.3,6.5,51.5c4.4,0.4,7.7,2.2,9.8,6.3c0.1-1.7,0.2-3.2,0.2-4.7c0-0.3-0.4-0.6-0.7-0.8
		c-1.9-0.8-3.5-2-4.8-3.7c-1.8-2.3-2.5-4.9-2.2-7.9c4.3,1.4,7.1,4.1,8,8.6c0.3-1.3,0.4-2.6,0.7-3.9c0.3-1.1-0.1-1.5-0.9-2
		c-4.2-2.9-5.8-7.5-4.3-11.9c1.7,0.9,3.3,2.1,4.4,3.7c1.2,1.6,1.6,3.5,1.9,5.6c0.4-1.2,0.7-2.2,1.2-3.1c0.5-0.9,0.3-1.5-0.5-2.2
		c-3.6-3.5-4.4-8.2-2.2-12.3c3.3,2.5,5,5.7,4.6,9.9c0.7-1.1,1.4-2.3,2-3.4c0.1-0.2,0-0.7-0.2-0.9c-0.7-1.1-1.5-2.1-2.1-3.3
		c-1.4-3.1-0.8-6.2,0.8-9.1c2.9,2.7,4.4,5.8,3.6,10.1c0.7-0.9,1.2-1.6,1.7-2.2c0.8-0.7,0.8-1.3,0.2-2.3c-2.3-4-1.8-8.5,1.2-11.7
		c2.3,3,3.2,6.3,1.9,10c0.4-0.3,0.7-0.6,1.1-0.9c1.4-0.9,1.6-2,0.9-3.6c-1.5-3.6-0.7-7.4,2.5-10.3c1.4,2.1,2.1,4.4,1.9,7
		c2.3-4.8,6.2-7.2,11.5-7.6c-0.9,5.7-3.9,9.5-9.4,11.3c3-0.1,5.5,1.2,7.6,3.2c-4.4,2.9-8.5,2.5-12.5-0.7c-0.9,0.9-1.8,1.7-2.6,2.5
		C35.6,20,39,20.9,42,23.4c-2.3,1.8-3.6,2.3-7.4,2.6c1,0.4,2,0.8,3.1,1.3c-3.7,4-7.9,4.9-12.8,2.8c-0.7,1.2-1.3,2.4-2.1,3.7
		c4.6-2.2,8.3-2.4,10.8-0.7c-1.6,2-3.4,3.6-5.9,4.2c-1.9,0.5-3.8,0.4-5.6-0.1c-0.3-0.1-0.8-0.1-0.8,0.1c-0.5,1.2-1,2.5-1.4,3.8
		c3.2-2.9,6.7-3.6,10.8-2.6c-2.5,4.9-6.4,6.8-11.8,6.1c-0.4,1.5-0.7,3-1,4.5c3.7-4.4,7.4-4.7,10.2-4.3c-0.2,3.9-5,7.5-10.7,8
		c0,1.7,0,3.3-0.1,5c0.9-1.9,2.1-3.6,3.7-4.9c1.7-1.3,3.5-2,5.6-2.3c-0.4,5.9-3.6,9.4-9.2,10.8c0.2,1.6,0.4,3,0.6,4.5
		c0,0.3,0.2,0.6,0.3,1c1.2-5.8,4.9-8,8.2-9c0.1,1.9,0,3.7-0.6,5.4c-1.2,3.4-3.8,5.4-7,6.9c0.6,1.9,1.2,3.6,1.7,5.4
		c0.3-4.8,3.2-8.6,7.1-10.2c1.3,5.8-0.6,10.3-5.8,13.4c0.9,1.8,1.8,3.5,2.7,5.3c-0.3-5,1.7-8.6,5.6-11.4c2.2,5.7,0.9,10.5-3.7,14.5
		c1.4,1.8,2.7,3.5,4,5.2c0.1,0,0.1-0.1,0.2-0.1c-0.8-2.2-1.2-4.4-0.7-6.8c0.5-2.3,1.7-4.3,3.3-6.1c3.6,5.3,3.3,10.4-0.6,15.6
		c1.8,1.4,3.6,2.8,5.4,4.3c-2.6-4.6-2.1-9,0.6-13.3c4.4,4.7,5,9.8,2.1,15.5c2.2,1.2,4.4,2.4,6.6,3.6c-3.7-5.5-4.6-9.5-2.7-13.7
		c5.6,3.5,7.4,8.5,5.9,14.9c2.5,0.7,5,1.3,7.5,2c0-0.1,0.1-0.1,0.1-0.2c-4.7-2.8-6.7-7.1-6.4-12.5c6.5,2.1,9.6,6.5,9.8,13.2
		c2.7,0.2,5.3,0.3,8,0.5c0-0.1,0.1-0.2,0.1-0.2c-5.2-2-7.7-6-8.4-11.3c5.5,0.4,9.6,3.6,11.5,8.9c0.3,0.8,0.3,2,0.9,2.4
		s1.8,0.1,2.7,0.2c5.8,0.1,11.5,1.1,17.2,1.9 M33.1,25.9c-1.3-0.6-2.5-1.2-3.9-1.8c-0.8,1-1.6,2-2.4,3
		C28.8,26.2,30.8,25.6,33.1,25.9z"/>
</g>
</svg>
