<?xml version="1.0" encoding="utf-8"?>
<!-- Generator: Adobe Illustrator 20.0.0, SVG Export Plug-In . SVG Version: 6.00 Build 0)  -->
<svg version="1.1" id="Слой_1" xmlns="http://www.w3.org/2000/svg" xmlns:xlink="http://www.w3.org/1999/xlink" x="0px" y="0px"
	 viewBox="0 0 301.7 125.3" style="enable-background:new 0 0 301.7 125.3;" xml:space="preserve">
<style type="text/css">
	.st0{fill:#FFFFFF;}
</style>
<g>
	<path class="st0" d="M15.9,30.5c2,0,3.4,0.4,4.4,1.3c1,0.8,1.6,1.9,2,3c0.1,0.5,0.3,1.1,0.4,1.8c0.1,0.8,0.2,1.6,0.2,2.5
		C23,40,23,40.9,23,41.9c0,1,0,1.9,0,2.8c0,1,0,1.9,0,2.8c0,0.8-0.1,1.8-0.2,2.9c-0.1,1.4-0.5,2.5-1,3.4c-0.5,0.9-1.2,1.6-1.9,2.1
		c-0.8,0.5-1.6,0.8-2.4,1c-0.9,0.2-1.7,0.3-2.6,0.3c-1.1,0-2.1-0.1-2.9-0.4c-0.8-0.3-1.5-0.6-2.1-1.1c-0.6-0.5-1-1-1.4-1.6
		c-0.4-0.6-0.6-1.3-0.8-2c-0.1-0.4-0.2-1-0.3-1.6c-0.1-0.6-0.1-1.3-0.1-2.1c0-0.8,0-1.5-0.1-2.3c0-0.8,0-1.5,0-2.3v-6
		c0-2.7,0.2-5.1,0.4-7.1c0.2-2,0.6-3.6,1.1-5c0.5-1.4,1.2-2.5,1.9-3.3c0.8-0.9,1.8-1.6,3-2.2c0.7-0.3,1.3-0.6,1.8-0.9
		c0.6-0.2,1.1-0.5,1.7-0.7c0.6-0.2,1.2-0.4,1.8-0.7c0.6-0.2,1.3-0.5,2-0.9c0.2,0.4,0.4,0.8,0.6,1.2c0.2,0.4,0.4,0.8,0.6,1.2
		c-0.7,0.4-1.4,0.7-2,0.9c-0.6,0.2-1.1,0.4-1.7,0.7c-0.5,0.2-1.1,0.5-1.8,0.7c-0.6,0.3-1.3,0.6-2.1,1c-1.1,0.6-2.1,1.6-2.8,3
		c-0.5,0.9-0.8,2-1,3.3c-0.1,1.3-0.2,2.6-0.3,4h0.1c0.4-0.6,0.8-1.1,1.3-1.5c0.5-0.4,1-0.7,1.5-0.9c0.5-0.2,0.9-0.4,1.4-0.4
		C15.2,30.5,15.6,30.5,15.9,30.5z M15.4,33.6c-1.9,0-3.3,0.9-4.1,2.7c-0.5,0.9-0.7,2.1-0.8,3.7c0,0.7-0.1,1.4-0.1,2.2
		c0,0.7,0,1.8,0,3.1c0,1.4,0.1,2.6,0.1,3.6c0,1,0.1,1.8,0.3,2.4c0.6,1.9,2,2.9,4.3,2.9c1.2,0,2.1-0.3,2.8-1c0.7-0.6,1.2-1.5,1.4-2.6
		c0.1-0.6,0.2-1.5,0.3-2.7c0-1.2,0.1-2.4,0.1-3.8c0-0.6,0-1.2,0-2c0-0.7,0-1.5-0.1-2.2c0-0.7-0.1-1.4-0.1-2
		c-0.1-0.6-0.1-1.1-0.2-1.5c-0.3-1-0.7-1.7-1.3-2.2C17.4,33.8,16.5,33.6,15.4,33.6z"/>
	<path class="st0" d="M35,29.4c2.2,0,3.9,0.5,5.2,1.6c1.2,1.1,2,2.6,2.2,4.6c0,0.4,0.1,0.8,0.1,1.2c0,0.4,0,0.8,0,1.2v6.1H30.3
		c0,0.4,0,0.7,0,1c0,0.3,0,0.7,0,1c0,1,0,1.9,0.1,2.9c0.1,1,0.2,1.7,0.4,2.3c0.6,1.8,1.9,2.7,4,2.7c1.4,0,2.4-0.4,3.1-1.2
		c0.7-0.8,1-1.9,1.1-3.3l3.4,0.7c-0.2,2.2-0.9,4-2.2,5.1c-1.3,1.2-3.2,1.8-5.5,1.8c-1.1,0-2.1-0.1-3-0.4c-0.8-0.3-1.5-0.7-2.1-1.1
		c-0.6-0.5-1-1-1.4-1.6c-0.3-0.6-0.6-1.2-0.7-1.8c-0.1-0.4-0.2-1-0.3-1.7c-0.1-0.7-0.1-1.4-0.1-2.2c0-0.8,0-1.6-0.1-2.4
		c0-0.8,0-1.6,0-2.3c0-1,0-1.9,0-2.9c0-1,0.1-1.9,0.1-2.7c0.1-0.9,0.2-1.7,0.2-2.4c0.1-0.7,0.2-1.3,0.4-1.8c0.5-1.4,1.3-2.4,2.5-3.2
		C31.4,29.8,33,29.4,35,29.4z M30.9,35.1c-0.2,0.6-0.4,1.4-0.4,2.5c-0.1,1.1-0.1,2.3-0.1,3.8h8.7v-2.9c0-0.8,0-1.5-0.1-2.2
		c-0.1-0.7-0.3-1.4-0.6-1.9c-0.3-0.6-0.7-1-1.3-1.3c-0.6-0.3-1.3-0.5-2.2-0.5c-0.8,0-1.6,0.2-2.3,0.6C31.8,33.4,31.3,34.1,30.9,35.1
		z"/>
	<path class="st0" d="M54.5,29.4c2.5,0,4.4,0.7,5.6,2c1.2,1.3,1.8,3.2,1.8,5.6l-3.5,0.5v-0.1c0.1-1.4-0.2-2.6-0.9-3.5
		c-0.7-0.9-1.8-1.4-3.1-1.4c-0.8,0-1.6,0.2-2.3,0.6s-1.2,1.1-1.6,2c-0.3,0.7-0.5,1.8-0.5,3.4c-0.1,1.6-0.1,3.5-0.1,5.7
		c0,1.4,0.1,2.8,0.1,4.1c0,1.3,0.1,2.3,0.3,3c0.3,0.9,0.8,1.6,1.4,2.1c0.7,0.5,1.5,0.8,2.6,0.8c1.3,0,2.3-0.4,3-1.2
		c0.7-0.8,1-2,1-3.7l3.5,0.6c-0.1,4.9-2.7,7.4-7.7,7.4c-1.1,0-2.1-0.1-2.9-0.4c-0.8-0.3-1.5-0.7-2.1-1.1c-0.6-0.5-1-1-1.4-1.6
		c-0.3-0.6-0.6-1.2-0.7-1.9c-0.1-0.4-0.2-1-0.3-1.7c-0.1-0.7-0.1-1.4-0.1-2.2c0-0.8,0-1.6-0.1-2.4c0-0.8,0-1.6,0-2.3
		c0-1,0-1.9,0-2.9c0-1,0.1-1.9,0.1-2.8c0.1-0.9,0.2-1.7,0.2-2.4c0.1-0.7,0.2-1.3,0.4-1.7c0.5-1.3,1.3-2.4,2.4-3.2
		C51,29.8,52.5,29.4,54.5,29.4z"/>
	<path class="st0" d="M78,56.8V32.7h-8.8v24.1h-3.4V29.8h15.5v27.1H78z"/>
	<path class="st0" d="M84.5,55.2c0.8-0.5,1.4-1,2-1.6c0.5-0.5,1-1.2,1.3-2c0.3-0.8,0.5-1.7,0.7-2.7c0.1-1.1,0.2-2.4,0.2-4V29.8h13.9
		v27.1H99v-24h-7.4v12.4c0,1.8-0.1,3.3-0.3,4.6c-0.2,1.3-0.5,2.5-0.9,3.5c-0.4,1-1,1.8-1.7,2.6c-0.7,0.7-1.6,1.3-2.7,1.8L84.5,55.2z
		"/>
	<path class="st0" d="M106.8,34.5c0.5-1.6,1.4-2.8,2.6-3.7c1.3-0.9,2.9-1.4,4.9-1.4c2.4,0,4.2,0.5,5.5,1.6c1.3,1.1,2,3,2,5.7v20.1
		h-3.4v-2.4h-0.1c-0.8,1.1-1.7,1.9-2.7,2.2c-1,0.3-2.1,0.5-3.2,0.5c-1.2,0-2.2-0.2-2.9-0.7c-0.8-0.4-1.4-1-1.9-1.7
		c-0.5-0.7-0.9-1.5-1.1-2.4c-0.2-0.9-0.3-1.9-0.3-2.9c0-1,0.1-2.1,0.3-3.1c0.2-1,0.6-2,1.2-2.8c0.6-0.8,1.4-1.5,2.3-2
		c1-0.5,2.2-0.8,3.7-0.8h4.8v-4c0-1.3-0.3-2.3-0.9-3.1c-0.6-0.8-1.7-1.2-3.4-1.2c-0.8,0-1.6,0.2-2.5,0.7c-0.9,0.5-1.4,1.2-1.7,2.3
		L106.8,34.5z M114.5,43.7c-1.4,0-2.6,0.4-3.5,1.2c-1,0.8-1.4,2.3-1.4,4.3c0,1.4,0.3,2.5,1,3.4c0.6,0.9,1.7,1.3,3.3,1.3
		c1.5,0,2.6-0.4,3.5-1.2c0.9-0.8,1.3-2,1.3-3.5v-5.5H114.5z"/>
	<path class="st0" d="M133.9,32.8v24h-3.4v-24h-6v-3.1h15.4v3.1H133.9z"/>
	<path class="st0" d="M154.8,56.8V44.4h-8.6v12.4h-3.4V29.8h3.4v11.7h8.6V29.8h3.5v27.1H154.8z"/>
	<path class="st0" d="M163.5,56.8V29.8h3.5v10.9h3.2c1.8,0,3.2,0.2,4.4,0.6c1.1,0.4,2,1,2.7,1.7c0.7,0.7,1.1,1.5,1.4,2.5
		c0.3,0.9,0.4,1.9,0.4,3c0,1.2-0.1,2.3-0.4,3.4c-0.3,1-0.7,1.9-1.3,2.7c-0.6,0.8-1.5,1.3-2.6,1.7c-1.1,0.4-2.5,0.6-4.3,0.6H163.5z
		 M166.9,53.6h3.2c1.1,0,2.1-0.1,2.8-0.4c0.7-0.3,1.3-0.7,1.7-1.2c0.4-0.5,0.7-1,0.8-1.6c0.1-0.6,0.2-1.2,0.2-1.8
		c0-0.7-0.1-1.3-0.3-1.9c-0.2-0.6-0.5-1.1-0.9-1.5c-0.4-0.4-1-0.8-1.7-1c-0.7-0.2-1.6-0.4-2.7-0.4h-3.1V53.6z M181.4,56.8V29.8h3.5
		v27.1H181.4z"/>
	<path class="st0" d="M203.4,56.8V36h-0.1l-9.8,20.8h-3.2v-27h3.4v20.8h0.1c1.6-3.4,3.3-6.9,4.9-10.4c1.6-3.5,3.2-7,4.9-10.4h3.4v27
		H203.4z M194.3,19.4c0.1,1,0.6,1.8,1.3,2.6c0.8,0.8,1.7,1.2,2.8,1.2c1.2,0,2.1-0.4,2.9-1.2c0.8-0.8,1.2-1.7,1.3-2.7h2.7
		c-0.1,0.7-0.3,1.4-0.5,2.2c-0.3,0.8-0.7,1.4-1.3,2.1c-0.6,0.6-1.3,1.2-2.1,1.6c-0.8,0.4-1.8,0.6-3,0.6c-1.2,0-2.2-0.2-3.1-0.6
		c-0.9-0.4-1.6-0.9-2.1-1.6c-0.5-0.6-1-1.3-1.2-2.1c-0.3-0.8-0.4-1.5-0.5-2.2H194.3z"/>
	<path class="st0" d="M14.7,75.9v24h-3.4v-24h-6v-3.1h15.4v3.1H14.7z"/>
	<path class="st0" d="M30.9,72.5c2.2,0,3.9,0.5,5.2,1.6c1.2,1.1,2,2.6,2.2,4.6c0,0.4,0.1,0.8,0.1,1.2c0,0.4,0,0.8,0,1.2v6.1H26.1
		c0,0.4,0,0.7,0,1c0,0.3,0,0.7,0,1c0,1,0,1.9,0.1,2.9c0.1,1,0.2,1.7,0.4,2.3c0.6,1.8,1.9,2.7,4,2.7c1.4,0,2.4-0.4,3.1-1.2
		c0.7-0.8,1-1.9,1.1-3.3l3.4,0.7c-0.2,2.2-0.9,4-2.2,5.1c-1.3,1.2-3.2,1.8-5.5,1.8c-1.1,0-2.1-0.1-3-0.4c-0.8-0.3-1.5-0.7-2.1-1.1
		c-0.6-0.5-1-1-1.4-1.6c-0.3-0.6-0.6-1.2-0.7-1.8c-0.1-0.4-0.2-1-0.3-1.7c-0.1-0.7-0.1-1.4-0.1-2.2c0-0.8,0-1.6-0.1-2.4
		c0-0.8,0-1.6,0-2.3c0-1,0-1.9,0-2.9c0-1,0.1-1.9,0.1-2.7c0.1-0.9,0.2-1.7,0.2-2.4c0.1-0.7,0.2-1.3,0.4-1.8c0.5-1.4,1.3-2.4,2.5-3.2
		C27.3,72.9,28.9,72.5,30.9,72.5z M26.8,78.1c-0.2,0.6-0.4,1.4-0.4,2.5c-0.1,1.1-0.1,2.3-0.1,3.8h8.7v-2.9c0-0.8,0-1.5-0.1-2.2
		c-0.1-0.7-0.3-1.4-0.6-1.9c-0.3-0.6-0.7-1-1.3-1.3c-0.6-0.3-1.3-0.5-2.2-0.5c-0.8,0-1.6,0.2-2.3,0.6C27.7,76.5,27.2,77.2,26.8,78.1
		z"/>
	<path class="st0" d="M50.4,72.5c2.5,0,4.4,0.7,5.6,2c1.2,1.3,1.8,3.2,1.8,5.6l-3.5,0.5v-0.1c0.1-1.4-0.2-2.6-0.9-3.5
		c-0.7-0.9-1.8-1.4-3.1-1.4c-0.8,0-1.6,0.2-2.3,0.6s-1.2,1.1-1.6,2c-0.3,0.7-0.5,1.8-0.5,3.4c-0.1,1.6-0.1,3.5-0.1,5.7
		c0,1.4,0.1,2.8,0.1,4.1c0,1.3,0.1,2.3,0.3,3c0.3,0.9,0.8,1.6,1.4,2.1c0.7,0.5,1.5,0.8,2.6,0.8c1.3,0,2.3-0.4,3-1.2
		c0.7-0.8,1-2,1-3.7l3.5,0.6c-0.1,4.9-2.7,7.4-7.7,7.4c-1.1,0-2.1-0.1-2.9-0.4c-0.8-0.3-1.5-0.7-2.1-1.1c-0.6-0.5-1-1-1.4-1.6
		c-0.3-0.6-0.6-1.2-0.7-1.9c-0.1-0.4-0.2-1-0.3-1.7c-0.1-0.7-0.1-1.4-0.1-2.2c0-0.8,0-1.6-0.1-2.4c0-0.8,0-1.6,0-2.3
		c0-1,0-1.9,0-2.9c0-1,0.1-1.9,0.1-2.8c0.1-0.9,0.2-1.7,0.2-2.4c0.1-0.7,0.2-1.3,0.4-1.7c0.5-1.3,1.3-2.4,2.4-3.2
		C46.9,72.9,48.4,72.5,50.4,72.5z"/>
	<path class="st0" d="M68.6,75.9v24h-3.4v-24h-6v-3.1h15.4v3.1H68.6z"/>
	<path class="st0" d="M85,72.5c2.1,0,3.7,0.4,4.8,1.2c1.1,0.8,1.9,1.8,2.3,3c0.3,1,0.5,2.2,0.6,3.6c0.1,1.5,0.1,2.9,0.1,4.4v2.7
		c0,1,0,2-0.1,2.9c0,1-0.1,2-0.2,3.1c-0.1,1.4-0.5,2.5-1,3.4c-0.5,0.9-1.2,1.6-1.9,2.1c-0.8,0.5-1.6,0.8-2.5,1
		c-0.9,0.2-1.7,0.3-2.6,0.3c-2.2,0-3.9-0.5-5-1.5c-1.1-1-1.8-2.2-2.2-3.5c-0.1-0.4-0.2-1-0.3-1.7c-0.1-0.7-0.1-1.4-0.2-2.2
		c0-0.8-0.1-1.6-0.1-2.4c0-0.8,0-1.6,0-2.3c0-1,0-1.9,0-2.9c0-1,0.1-1.9,0.1-2.8c0.1-0.9,0.2-1.7,0.2-2.4c0.1-0.7,0.2-1.3,0.4-1.7
		c0.5-1.3,1.3-2.4,2.5-3.2C81.4,72.9,83,72.5,85,72.5z M84.9,75.6c-0.8,0-1.6,0.2-2.4,0.5s-1.3,1-1.7,2c-0.3,0.7-0.4,1.7-0.5,3
		c-0.1,1.4-0.1,3-0.1,4.8v1.8c0,1.5,0,2.8,0.1,4c0,1.2,0.2,2.1,0.4,2.7c0.5,1.9,2,2.8,4.2,2.8c1.1,0,2-0.3,2.7-0.9
		c0.8-0.6,1.3-1.5,1.5-2.5c0.1-0.7,0.2-1.6,0.3-2.9c0.1-1.3,0.1-2.6,0.1-4c0-0.8,0-1.6,0-2.4c0-0.8,0-1.6-0.1-2.4
		c0-0.8-0.1-1.5-0.1-2.1c-0.1-0.6-0.2-1.1-0.3-1.4c-0.3-1-0.8-1.7-1.5-2.2C86.7,75.8,85.9,75.6,84.9,75.6z"/>
	<path class="st0" d="M97.4,99.9v-27h7.2c3,0,5.1,0.6,6.4,1.9c1.3,1.2,2,3,2,5.3c0,1.3-0.2,2.4-0.6,3.3c-0.4,0.9-1.1,1.7-2.2,2.3
		h0.1c1.2,0.5,2,1.3,2.4,2.5c0.4,1.1,0.7,2.4,0.7,3.7c0,2.9-0.7,5-2.2,6.2c-1.5,1.2-3.7,1.9-6.5,1.9H97.4z M100.7,75.8v8.4h3.9
		c1.8,0,3-0.4,3.8-1.1c0.7-0.7,1.1-1.8,1.1-3.2c0-1.4-0.4-2.4-1.2-3.1c-0.8-0.7-2.2-1-4-1H100.7z M100.7,87.1v9.7h4
		c1.1,0,2-0.1,2.7-0.4c0.7-0.3,1.2-0.6,1.6-1.1c0.4-0.5,0.6-1,0.8-1.7c0.1-0.6,0.2-1.3,0.2-2c0-1.4-0.4-2.6-1.1-3.3
		c-0.7-0.8-2-1.2-3.8-1.2H100.7z"/>
	<path class="st0" d="M117.9,99.9V72.8h3.5v10.9h3.2c1.8,0,3.2,0.2,4.4,0.6c1.1,0.4,2,1,2.7,1.7c0.7,0.7,1.1,1.5,1.4,2.5
		c0.3,0.9,0.4,1.9,0.4,3c0,1.2-0.1,2.3-0.4,3.4c-0.3,1-0.7,1.9-1.3,2.7c-0.6,0.8-1.5,1.3-2.6,1.7c-1.1,0.4-2.5,0.6-4.3,0.6H117.9z
		 M121.4,96.7h3.2c1.1,0,2.1-0.1,2.8-0.4c0.7-0.3,1.3-0.7,1.7-1.2c0.4-0.5,0.7-1,0.8-1.6c0.1-0.6,0.2-1.2,0.2-1.8
		c0-0.7-0.1-1.3-0.3-1.9c-0.2-0.6-0.5-1.1-0.9-1.5c-0.4-0.4-1-0.8-1.7-1c-0.7-0.2-1.6-0.4-2.7-0.4h-3.1V96.7z M135.9,99.9V72.8h3.5
		v27.1H135.9z"/>
	<path class="st0" d="M157.8,99.9V79h-0.1l-9.8,20.8h-3.2v-27h3.4v20.8h0.1c1.6-3.4,3.3-6.9,4.9-10.4c1.6-3.5,3.2-7,4.9-10.4h3.4v27
		H157.8z M148.8,62.5c0.1,1,0.6,1.8,1.3,2.6c0.8,0.8,1.7,1.2,2.8,1.2c1.2,0,2.1-0.4,2.9-1.2c0.8-0.8,1.2-1.7,1.3-2.7h2.7
		c-0.1,0.7-0.3,1.4-0.5,2.2c-0.3,0.8-0.7,1.4-1.3,2.1c-0.6,0.6-1.3,1.2-2.1,1.6c-0.8,0.4-1.8,0.6-3,0.6c-1.2,0-2.2-0.2-3.1-0.6
		c-0.9-0.4-1.6-0.9-2.1-1.6c-0.5-0.6-1-1.3-1.2-2.1c-0.3-0.8-0.4-1.5-0.5-2.2H148.8z"/>
	<path class="st0" d="M189.1,99.9V75.8h-8.8v24.1h-3.4V72.8h15.5v27.1H189.1z"/>
	<path class="st0" d="M205.1,72.5c2.2,0,3.9,0.5,5.2,1.6c1.2,1.1,2,2.6,2.2,4.6c0,0.4,0.1,0.8,0.1,1.2c0,0.4,0,0.8,0,1.2v6.1h-12.2
		c0,0.4,0,0.7,0,1c0,0.3,0,0.7,0,1c0,1,0,1.9,0.1,2.9c0.1,1,0.2,1.7,0.4,2.3c0.6,1.8,1.9,2.7,4,2.7c1.4,0,2.4-0.4,3.1-1.2
		c0.7-0.8,1-1.9,1.1-3.3l3.4,0.7c-0.2,2.2-0.9,4-2.2,5.1c-1.3,1.2-3.2,1.8-5.5,1.8c-1.1,0-2.1-0.1-3-0.4c-0.8-0.3-1.5-0.7-2.1-1.1
		c-0.6-0.5-1-1-1.4-1.6c-0.3-0.6-0.6-1.2-0.7-1.8c-0.1-0.4-0.2-1-0.3-1.7c-0.1-0.7-0.1-1.4-0.1-2.2c0-0.8,0-1.6-0.1-2.4
		c0-0.8,0-1.6,0-2.3c0-1,0-1.9,0-2.9c0-1,0.1-1.9,0.1-2.7c0.1-0.9,0.2-1.7,0.2-2.4c0.1-0.7,0.2-1.3,0.4-1.8c0.5-1.4,1.3-2.4,2.5-3.2
		C201.5,72.9,203.1,72.5,205.1,72.5z M200.9,78.1c-0.2,0.6-0.4,1.4-0.4,2.5c-0.1,1.1-0.1,2.3-0.1,3.8h8.7v-2.9c0-0.8,0-1.5-0.1-2.2
		c-0.1-0.7-0.3-1.4-0.6-1.9c-0.3-0.6-0.7-1-1.3-1.3c-0.6-0.3-1.3-0.5-2.2-0.5c-0.8,0-1.6,0.2-2.3,0.6
		C201.9,76.5,201.3,77.2,200.9,78.1z"/>
	<path class="st0" d="M225.6,72.5c0.6,0,1.2,0.1,1.9,0.2c0.7,0.2,1.4,0.5,2,0.9c0.6,0.5,1.2,1.1,1.7,2c0.5,0.9,0.8,2,1,3.4
		c0.1,1.1,0.2,2.3,0.2,3.4c0,1.2,0,2.4,0,3.7c0,2,0,3.9-0.1,5.6c-0.1,1.7-0.3,3.2-0.8,4.4c-0.4,1.2-1.1,2.2-2,3
		c-0.9,0.8-2.3,1.2-4.1,1.2c-1.3,0-2.3-0.3-3.2-0.8c-0.9-0.5-1.5-1.1-1.9-1.8h-0.1v12.9h-3.4V72.9h3.4v2.4h0.1
		c0.6-0.9,1.3-1.5,2.1-2C223,72.7,224.1,72.5,225.6,72.5z M224.6,75.8c-1.4,0-2.5,0.5-3.3,1.4c-0.8,0.9-1.2,2.1-1.2,3.6v10.9
		c0,1.5,0.4,2.7,1.1,3.7c0.7,1,1.8,1.5,3.4,1.5c2.1,0,3.4-1,4-3.1c0.2-0.8,0.3-1.9,0.4-3.3c0.1-1.4,0.1-2.9,0.1-4.6
		c0-1.7,0-3.2-0.1-4.4c-0.1-1.2-0.2-2.2-0.4-3c-0.3-1-0.7-1.7-1.4-2.2C226.4,76,225.6,75.8,224.6,75.8z"/>
	<path class="st0" d="M250.2,99.9V79h-0.1l-9.8,20.8h-3.2v-27h3.4v20.8h0.1c1.6-3.4,3.3-6.9,4.9-10.4c1.6-3.5,3.2-7,4.9-10.4h3.4v27
		H250.2z"/>
	<path class="st0" d="M266.2,72.5c2.1,0,3.7,0.4,4.8,1.2c1.1,0.8,1.9,1.8,2.3,3c0.3,1,0.5,2.2,0.6,3.6c0.1,1.5,0.1,2.9,0.1,4.4v2.7
		c0,1,0,2-0.1,2.9c0,1-0.1,2-0.2,3.1c-0.1,1.4-0.5,2.5-1,3.4c-0.5,0.9-1.2,1.6-1.9,2.1c-0.8,0.5-1.6,0.8-2.5,1
		c-0.9,0.2-1.7,0.3-2.6,0.3c-2.2,0-3.9-0.5-5-1.5c-1.1-1-1.8-2.2-2.2-3.5c-0.1-0.4-0.2-1-0.3-1.7c-0.1-0.7-0.1-1.4-0.2-2.2
		c0-0.8-0.1-1.6-0.1-2.4c0-0.8,0-1.6,0-2.3c0-1,0-1.9,0-2.9c0-1,0.1-1.9,0.1-2.8c0.1-0.9,0.2-1.7,0.2-2.4c0.1-0.7,0.2-1.3,0.4-1.7
		c0.5-1.3,1.3-2.4,2.5-3.2C262.7,72.9,264.3,72.5,266.2,72.5z M266.2,75.6c-0.8,0-1.6,0.2-2.4,0.5c-0.7,0.4-1.3,1-1.7,2
		c-0.3,0.7-0.4,1.7-0.5,3c-0.1,1.4-0.1,3-0.1,4.8v1.8c0,1.5,0,2.8,0.1,4c0,1.2,0.2,2.1,0.4,2.7c0.5,1.9,2,2.8,4.2,2.8
		c1.1,0,2-0.3,2.7-0.9c0.8-0.6,1.3-1.5,1.5-2.5c0.1-0.7,0.2-1.6,0.3-2.9c0.1-1.3,0.1-2.6,0.1-4c0-0.8,0-1.6,0-2.4
		c0-0.8,0-1.6-0.1-2.4c0-0.8-0.1-1.5-0.1-2.1c-0.1-0.6-0.2-1.1-0.3-1.4c-0.3-1-0.8-1.7-1.5-2.2C268,75.8,267.1,75.6,266.2,75.6z"/>
	<path class="st0" d="M279.5,106.8h-3.1v-9.7l1.7-0.3c0.5-0.5,0.9-1,1.2-1.5c0.3-0.5,0.5-1.1,0.7-1.8c0.2-0.7,0.3-1.6,0.4-2.6
		c0.1-1,0.2-2.3,0.2-4l0.4-14.1h14.5v24l1.9,0.1v10h-3.1v-6.9h-14.7V106.8z M292.1,75.9h-7.9l-0.4,11.3c-0.1,2.3-0.2,4.2-0.5,5.8
		s-0.7,2.9-1.3,3.8h10.2V75.9z"/>
</g>
</svg>
