<?xml version="1.0" encoding="UTF-8"?>
<svg width="10px" height="20px" viewBox="0 0 10 20" version="1.1" xmlns="http://www.w3.org/2000/svg" xmlns:xlink="http://www.w3.org/1999/xlink">
    <!-- Generator: Sketch 46.2 (44496) - http://www.bohemiancoding.com/sketch -->
    <title>F_1 Copy 3</title>
    <desc>Created with Sketch.</desc>
    <defs></defs>
    <g id="Page-1" stroke="none" stroke-width="1" fill="none" fill-rule="evenodd">
        <g id="yellow" transform="translate(-1840.000000, -360.000000)" fill-rule="nonzero" fill="#000000">
            <g id="F_1-Copy-3" transform="translate(1840.000000, 360.000000)">
                <path d="M9.47183099,0 C8.34507042,0 7.18309859,0 6.02112676,0.034965035 C4.92957746,0.034965035 3.9084507,0.559440559 3.27464789,1.43356643 C2.74647887,2.13286713 2.46478873,3.00699301 2.46478873,3.88111888 C2.46478873,4.61538462 2.46478873,5.34965035 2.46478873,6.08391608 C2.46478873,6.36363636 2.3943662,6.43356643 2.11267606,6.43356643 C1.61971831,6.3986014 1.12676056,6.43356643 0.633802817,6.43356643 C0.457746479,6.43356643 0.387323944,6.5034965 0.387323944,6.67832168 C0.387323944,7.65734266 0.387323944,8.6013986 0.387323944,9.58041958 C0.387323944,9.79020979 0.457746479,9.86013986 0.669014085,9.82517483 C1.16197183,9.82517483 1.65492958,9.82517483 2.11267606,9.82517483 C2.35915493,9.82517483 2.46478873,9.8951049 2.46478873,10.1398601 C2.46478873,11.6783217 2.46478873,13.2167832 2.46478873,14.7552448 C2.46478873,16.2937063 2.46478873,17.7972028 2.46478873,19.3356643 C2.46478873,19.6153846 2.5,19.7202797 2.81690141,19.7202797 C3.94366197,19.6853147 5.07042254,19.6853147 6.23239437,19.7202797 C6.54929577,19.7202797 6.61971831,19.6503497 6.61971831,19.3356643 C6.61971831,16.3286713 6.61971831,13.2867133 6.61971831,10.2797203 C6.61971831,9.79020979 6.58450704,9.86013986 7.04225352,9.86013986 C7.71126761,9.86013986 8.38028169,9.86013986 9.01408451,9.86013986 C9.22535211,9.86013986 9.29577465,9.82517483 9.33098592,9.61538462 C9.40140845,8.63636364 9.50704225,7.65734266 9.61267606,6.71328671 C9.64788732,6.46853147 9.54225352,6.3986014 9.33098592,6.3986014 C8.48591549,6.3986014 7.64084507,6.3986014 6.83098592,6.3986014 C6.69014085,6.3986014 6.58450704,6.3986014 6.58450704,6.22377622 C6.58450704,5.62937063 6.58450704,5.06993007 6.61971831,4.47552448 C6.61971831,3.88111888 7.07746479,3.39160839 7.67605634,3.35664336 C7.71126761,3.35664336 7.78169014,3.35664336 7.81690141,3.35664336 C8.38028169,3.35664336 8.9084507,3.35664336 9.47183099,3.35664336 C9.64788732,3.35664336 9.71830986,3.32167832 9.68309859,3.14685315 C9.68309859,2.16783217 9.68309859,1.18881119 9.68309859,0.20979021 C9.68309859,0.0699300699 9.64788732,0 9.47183099,0 Z" id="Shape"></path>
            </g>
        </g>
    </g>
</svg>