<?xml version="1.0" encoding="UTF-8"?>
<svg width="20px" height="20px" viewBox="0 0 20 20" version="1.1" xmlns="http://www.w3.org/2000/svg" xmlns:xlink="http://www.w3.org/1999/xlink">
    <!-- Generator: Sketch 46.2 (44496) - http://www.bohemiancoding.com/sketch -->
    <title>Group 3 Copy 3</title>
    <desc>Created with Sketch.</desc>
    <defs></defs>
    <g id="Page-1" stroke="none" stroke-width="1" fill="none" fill-rule="evenodd">
        <g id="yellow" transform="translate(-1834.000000, -302.000000)" fill-rule="nonzero" fill="#000000">
            <g id="Group-3-Copy-3" transform="translate(1834.000000, 301.000000)">
                <g id="Group-2" transform="translate(0.335664, 0.734266)">
                    <path d="M0.0760115906,5.10809654 C0.176533935,5.71123061 0.310563727,6.34787212 0.478100968,6.91749874 C1.48332441,10.5363031 3.66130854,13.3509288 6.40891929,15.763465 C8.58690341,17.6733896 11.2004844,19.0136875 14.01511,19.6168216 C15.9250346,20.018911 17.600407,19.348762 18.9407049,18.0084641 C19.5773464,17.3718226 19.6778687,16.433614 19.6778687,15.5289129 C19.6778687,15.3613757 19.4433166,15.1268235 19.2422719,14.9927937 C18.6056304,14.5907044 17.901974,14.2556299 17.1983176,13.8535405 L15.6234675,12.8818245 C15.0873483,12.54675 14.8192888,12.54675 14.3501845,13.0158543 C13.8810802,13.4849586 13.4454834,14.0210777 12.9763791,14.5571969 C12.3397376,15.2943608 12.1051855,15.2943608 11.2339918,14.7917491 C9.19003748,13.6524958 7.38063528,12.245183 6.0738448,10.2682436 C5.67175543,9.66510949 5.26966605,8.99496053 4.90108412,8.35831901 C4.56600964,7.78869239 4.63302454,7.55414026 5.10212881,7.08503598 C5.57123308,6.61593171 6.2078746,6.14682744 6.71048632,5.67772316 C7.31362038,5.10809654 7.31362038,4.87354441 6.87802356,4.169888 C6.27488949,3.16466455 5.67175543,2.09242621 5.03511391,1.05369532 C4.59951709,0.249516566 4.3984724,0.216009118 3.4937713,0.316531462 C1.51683186,0.551083599 0.813175449,2.02541132 0.243548831,3.63376883 C0.0425041425,4.13638055 0.00899669437,4.60548482 0.0760115906,5.10809654 Z" id="Shape"></path>
                    <polygon id="Shape" points="18.4615385 4.1958042 15.5944056 1.3986014 12.2377622 4.82517483 11.1188811 3.74125874 10.4895105 9.47552448 16.2587413 8.70629371 15.1398601 7.62237762"></polygon>
                </g>
            </g>
        </g>
    </g>
</svg>