<?xml version="1.0" encoding="UTF-8"?>
<svg width="26px" height="27px" viewBox="0 0 26 27" version="1.1" xmlns="http://www.w3.org/2000/svg" xmlns:xlink="http://www.w3.org/1999/xlink">
    <!-- Generator: Sketch 46.2 (44496) - http://www.bohemiancoding.com/sketch -->
    <title>Viber_2 Copy 3</title>
    <desc>Created with Sketch.</desc>
    <defs></defs>
    <g id="Page-1" stroke="none" stroke-width="1" fill="none" fill-rule="evenodd">
        <g id="yellow" transform="translate(-1832.000000, -477.000000)" fill-rule="nonzero">
            <g id="Viber_2-Copy-3" transform="translate(1832.000000, 474.000000)">
                <g id="Group" transform="translate(0.323944, 0.286713)">
                    <path d="M17.9502586,18.295114 C17.604661,17.9889484 17.2590635,17.7265207 16.913466,17.4640931 C16.5678684,17.2016654 16.1790712,16.9392378 15.790274,16.6768101 C15.4446765,16.4143824 14.9262802,16.4143824 14.6238823,16.720548 C14.2782848,17.0267136 14.105486,17.5953069 13.5870897,17.6390448 C13.2846919,17.6390448 12.982294,17.5953069 12.7230959,17.4203551 C11.1247073,16.720548 9.9583156,15.4084098 9.43991929,13.746368 C9.35351991,13.5276782 9.35351991,13.3089885 9.48311899,13.0902988 C9.56951837,13.0028229 9.65591775,12.8716091 9.74231714,12.8278712 C9.87191621,12.7403953 9.9583156,12.6529194 10.0879147,12.5654435 C10.5631113,12.2592779 10.6927104,11.6469467 10.4335122,11.1658293 C10.0015153,10.3785464 9.43991929,9.63500136 8.8783233,8.93519428 C8.66232484,8.62902868 8.23032792,8.49781485 7.8415307,8.67276662 C7.36633409,8.89145634 6.89113748,9.24135988 6.54553994,9.63500136 C6.19994241,10.0723808 5.81114518,10.684712 6.07034333,11.2533052 C6.28634179,11.8218985 6.58873964,12.5217056 6.89113748,13.1777747 C7.49593316,14.489913 8.31672731,15.7145754 9.22392084,16.8080239 C10.9087088,18.7324934 13.0686934,20.0008937 15.3582771,20.9631285 C15.5742755,21.0506044 15.8334737,21.0943423 16.0926718,21.1818182 C15.8334737,21.0943423 16.3086703,21.0943423 16.0926718,21.1818182 C16.3086703,21.1380802 16.5246687,21.0506044 16.7406672,20.9631285 C17.3886626,20.569487 17.9502586,20.0008937 18.2526564,19.3010867 C18.3822555,18.9949211 18.2958561,18.5575416 17.9502586,18.295114 Z" id="Shape" fill="#000000"></path>
                    <path d="M24.8380707,9.27708405 C24.2255952,6.78374753 21.4694552,4.15918277 18.9320565,3.59052707 L18.8883083,3.59052707 C14.8197207,2.80315764 10.6198884,2.80315764 6.50755265,3.59052707 L6.4638044,3.59052707 C3.92640572,4.15918277 1.17026577,6.78374753 0.557790227,9.27708405 L0.557790227,9.3208268 C-0.185930076,12.732761 -0.185930076,16.3196662 0.557790227,19.7316003 L0.557790227,19.7753431 C1.12651752,22.1374514 3.70766445,24.6745306 6.15756662,25.3744146 L6.15756662,28.1302076 C6.15756662,28.742606 6.68254566,29.2237762 7.29502121,29.2237762 C7.60125898,29.2237762 7.8637485,29.092548 8.08248976,28.8738343 L10.882378,25.986813 C11.4948535,26.0305558 12.107329,26.0305558 12.7198046,26.0305558 C14.7759725,26.0305558 16.8758886,25.8555848 18.8883083,25.4619001 L18.8883083,25.4619001 C21.425707,24.8932444 24.1818469,22.2686796 24.7943224,19.7753431 L24.7943224,19.7316003 C25.5380428,16.3196662 25.5380428,12.732761 24.7943224,9.3208268 L24.8380707,9.27708405 Z M22.6069098,19.2504301 C22.2131755,20.8689117 20.1132594,22.8810781 18.4508257,23.23102 C16.3071613,23.6247047 14.0760004,23.8434185 11.8885878,23.755933 C11.8448395,23.755933 11.8010913,23.755933 11.757343,23.7996757 L9.70117513,25.8993275 L7.51376247,28.1302076 C7.42626597,28.2176931 7.25127295,28.2176931 7.16377645,28.1302076 C7.12002819,28.0864648 7.07627994,27.9989793 7.07627994,27.9552366 L7.07627994,23.3622483 C7.07627994,23.2747628 7.03253169,23.23102 6.94503518,23.23102 L6.94503518,23.23102 C5.28260156,22.8810781 3.18268541,20.8689117 2.78895114,19.2504301 C2.08897909,16.1446952 2.08897909,12.9514747 2.78895114,9.84573975 C3.18268541,8.22725815 5.28260156,6.21509183 6.94503518,5.86514986 C10.7511332,5.12152318 14.6447277,5.12152318 18.4070775,5.86514986 C20.0695111,6.21509183 22.1694273,8.22725815 22.5631615,9.84573975 C23.3068818,12.907732 23.3068818,16.1446952 22.6069098,19.2504301 Z" id="Shape" fill="#000000"></path>
                    <path d="M18.8436351,12.9266587 C18.3322867,10.0271192 15.8181574,7.93774518 12.8779044,7.8951049 L12.7074549,7.8951049 C12.4943931,7.8951049 12.3239437,8.06566604 12.3239437,8.27886747 L12.3239437,8.32150776 C12.366556,8.57734948 12.6648426,8.61998977 12.8779044,8.61998977 C13.2188033,8.66263005 13.5597022,8.66263005 13.9006011,8.74791063 C16.1164439,9.17431349 17.8635507,10.9652055 18.2044496,13.1825004 C18.247062,13.6089033 18.2896744,14.0353062 18.3322867,14.461709 C18.3322867,14.6749105 18.4601238,14.8881119 18.6731856,14.8881119 C18.8862474,14.8881119 19.0140845,14.7175507 19.0140845,14.5043493 L19.0140845,14.461709 C18.9714721,13.9500256 18.9288598,13.4383421 18.8436351,12.9266587 Z" id="Shape" fill="#000000"></path>
                    <path d="M12.6760563,7.8951049 L12.6760563,7.8951049 C12.859647,7.8951049 15.7512003,7.9951049 12.6760563,7.8951049 Z" id="Shape" fill="#1D1D1B"></path>
                    <path d="" id="Shape" fill="#1D1D1B"></path>
                    <path d="M16.5262604,14.0177493 C16.5262604,14.1061209 16.5262604,14.2386782 16.5690404,14.3270498 C16.6546005,14.5037929 16.8257207,14.5921645 16.9968409,14.5037929 C17.0824009,14.4596072 17.167961,14.3712356 17.2107411,14.282864 C17.2107411,14.1944925 17.2535211,14.1503067 17.2535211,14.0619351 C17.2535211,14.1061209 17.2535211,13.8410062 17.2535211,14.0619351 C17.2535211,13.8410062 17.2535211,13.7084488 17.2107411,13.5317057 C17.2107411,13.4875199 17.2107411,13.3991483 17.167961,13.3549625 C16.9968409,11.9852032 16.18402,10.792187 14.9861788,10.1735861 C14.3872581,9.86428557 13.7027774,9.68754243 13.0182967,9.64335664 C12.8471765,9.64335664 12.6760563,9.775914 12.6760563,9.95265714 C12.6760563,9.95265714 12.6760563,9.95265714 12.6760563,9.99684292 C12.6760563,10.1735861 12.8043965,10.3503292 12.9755167,10.394515 C12.9755167,10.394515 12.9755167,10.394515 13.0182967,10.394515 C13.1894169,10.4387008 13.3605371,10.4387008 13.5316572,10.4828865 C13.9166776,10.5270723 14.301698,10.6596297 14.6439384,10.8363728 C15.242859,11.1456733 15.7134395,11.6317169 16.0556799,12.2061321 C16.3551402,12.7363616 16.5262604,13.3549625 16.5262604,14.0177493 Z" id="Shape" fill="#000000"></path>
                    <path d="M15.5876273,14.1888112 L15.5876273,14.1888112 C15.4876273,14.1888112 15.4376273,14.1888112 15.5876273,14.1888112 Z" id="Shape" fill="#1D1D1B"></path>
                    <path d="M15.4929577,13.6294446 C15.4929577,13.5480688 15.4929577,13.426005 15.4929577,13.3446291 C15.3658933,12.0426153 14.5611516,11.4729843 13.3752166,11.3916084 C13.2057973,11.3916084 13.036378,11.5136722 13.036378,11.6764239 C12.9940232,11.8391756 13.1210877,12.0019274 13.2905069,12.0426153 L13.2905069,12.0426153 C13.4599262,12.0833032 13.6717004,12.0833032 13.8411196,12.1239912 C14.0105389,12.1646791 14.1376034,12.205367 14.2646679,12.3274308 C14.5187968,12.5308705 14.6882161,12.7749981 14.7729258,13.0598136 C14.8152806,13.2225653 14.8152806,13.3446291 14.8576354,13.5073808 C14.8576354,13.7108205 15.0270547,13.8735722 15.2388288,13.8328843 L15.2388288,13.8328843 L15.2811836,13.8328843 C15.4082481,13.8328843 15.4929577,13.7515084 15.4929577,13.6294446 Z" id="Shape" fill="#000000"></path>
                </g>
            </g>
        </g>
    </g>
</svg>