<?xml version="1.0" encoding="UTF-8"?>
<svg width="25px" height="25px" viewBox="0 0 25 25" version="1.1" xmlns="http://www.w3.org/2000/svg" xmlns:xlink="http://www.w3.org/1999/xlink">
    <!-- Generator: Sketch 46.2 (44496) - http://www.bohemiancoding.com/sketch -->
    <title>WatsApp_2 Copy 3</title>
    <desc>Created with Sketch.</desc>
    <defs></defs>
    <g id="Page-1" stroke="none" stroke-width="1" fill="none" fill-rule="evenodd">
        <g id="yellow" transform="translate(-1833.000000, -536.000000)" fill-rule="nonzero" fill="#000000">
            <g id="WatsApp_2-Copy-3" transform="translate(1833.000000, 536.000000)">
                <g id="Group">
                    <path d="M12.7403846,0.000229738334 C6.16987179,-0.0395538275 0.801282051,5.09252617 0.480769231,11.5772474 C0.480769231,11.7363817 0.480769231,11.9352995 0.480769231,12.0944338 C0.480769231,14.2825299 1.08173077,16.470626 2.24358974,18.3404536 L0,24.8251748 L6.77083333,22.6768623 C12.7403846,25.9391147 20.2323718,23.7510185 23.4775641,17.8630508 C24.4391026,16.1125739 24.9599359,14.1233956 25,12.0944338 C25,11.9750831 25,11.8955159 25,11.7761652 C24.7996795,5.21187686 19.3910256,0.000229738334 12.7403846,0.000229738334 Z M12.7403846,22.3188102 C10.7371795,22.3188102 8.73397436,21.7220567 7.05128205,20.6479004 L3.0849359,21.881191 L4.36698718,18.1017522 C3.0849359,16.3512753 2.40384615,14.2825299 2.40384615,12.1342173 C2.40384615,11.8159488 2.40384615,11.4578967 2.44391026,11.1396282 C3.04487179,5.49036182 8.13301282,1.39265454 13.8221154,1.98940803 C18.75,2.50659439 22.5961538,6.40538384 23.036859,11.2987624 C23.036859,11.5374638 23.0769231,11.8159488 23.0769231,12.0944338 C23.0769231,17.7834837 18.4294872,22.3188102 12.7403846,22.3188102 L12.7403846,22.3188102 Z" id="Shape"></path>
                    <path d="M19.0155823,14.6072633 C18.6842193,14.4487776 17.1516653,13.735592 16.9031431,13.6563491 C16.6132004,13.5771063 16.4060986,13.4978634 16.1989967,13.8148348 C15.9918948,14.0921848 15.4120095,14.765749 15.2049076,14.9638562 C14.9978057,15.1619633 14.8321242,15.2015847 14.5421816,15.043099 C13.6309333,14.6865062 12.7611054,14.2110491 12.056959,13.5771063 C11.394233,12.9827849 10.7729273,12.3092206 10.3173032,11.5167921 C10.1516217,11.2394421 10.3173032,11.0809564 10.4415643,10.9224707 C10.5658254,10.763985 10.7729273,10.5658779 10.8971884,10.4073921 C10.9386088,10.3677707 10.9800292,10.3281493 11.0214496,10.2489064 C11.1042903,10.1300422 11.1457107,10.0111779 11.2285515,9.8923136 C11.3113922,9.7338279 11.3113922,9.53572077 11.1871311,9.37723506 C11.1042903,9.21874936 10.4829847,7.79237801 10.2344624,7.19805661 C9.98594015,6.60373522 9.69599751,6.68297807 9.530316,6.68297807 C9.3646345,6.68297807 9.11611223,6.64335664 8.95043073,6.64335664 C8.61906771,6.64335664 8.32912507,6.80184235 8.12202319,6.99994948 C7.41787679,7.6338923 7.00367302,8.54518511 7.04509339,9.45647791 C7.04509339,9.81307075 7.08651377,10.1300422 7.2107749,10.4470136 C7.45929716,11.1998207 7.83208055,11.8733849 8.32912507,12.5073277 C8.49480658,12.7054349 10.4829847,15.7959061 13.6723537,16.9845489 C16.8617227,18.1731917 16.8203023,17.7769774 17.4001876,17.737356 C17.9386525,17.6977346 19.2641046,17.0241703 19.5126268,16.3506061 C19.7197287,15.9147704 19.7611491,15.4393133 19.6783083,14.9638562 C19.5126268,14.8449919 19.3055249,14.765749 19.0155823,14.6072633 Z" id="Shape"></path>
                </g>
            </g>
        </g>
    </g>
</svg>