<?xml version="1.0" encoding="UTF-8"?>
<svg width="23px" height="23px" viewBox="0 0 23 23" version="1.1" xmlns="http://www.w3.org/2000/svg" xmlns:xlink="http://www.w3.org/1999/xlink">
    <!-- Generator: Sketch 46.2 (44496) - http://www.bohemiancoding.com/sketch -->
    <title>Позвонить_2 Copy 3</title>
    <desc>Created with Sketch.</desc>
    <defs></defs>
    <g id="Page-1" stroke="none" stroke-width="1" fill="none" fill-rule="evenodd">
        <g id="yellow" transform="translate(-1833.000000, -240.000000)" fill-rule="nonzero" fill="#000000">
            <g id="Позвонить_2-Copy-3" transform="translate(1833.000000, 240.000000)">
                <g id="Group">
                    <path d="M0.104715898,7.69336483 C0.205946146,8.30074632 0.34091981,8.94187122 0.50963689,9.5155093 C1.52193937,13.1597982 3.71526142,15.9942452 6.48222153,18.4237711 C8.67554358,20.3471459 11.30753,21.6968825 14.141977,22.304264 C16.0653517,22.709185 17.7525225,22.0343167 19.1022591,20.68458 C19.743384,20.0434551 19.8446143,19.0986395 19.8446143,18.1875672 C19.8446143,18.0188501 19.6084104,17.7826462 19.4059499,17.6476726 C18.764825,17.2427516 18.0562132,16.9053174 17.3476015,16.5003964 L15.761661,15.5218374 C15.2217663,15.1844032 14.951819,15.1844032 14.4794111,15.656811 C14.0070033,16.1292188 13.5683389,16.6691135 13.0959311,17.2090082 C12.4548062,17.9513633 12.2186023,17.9513633 11.3412734,17.4452121 C9.28292507,16.2979359 7.4607806,14.8807125 6.14478737,12.8898509 C5.73986638,12.2824694 5.33494539,11.6076011 4.96376781,10.9664762 C4.62633365,10.3928381 4.69382048,10.1566342 5.16622831,9.68422638 C5.63863613,9.21181855 6.27976104,8.73941073 6.78591228,8.2670029 C7.39329377,7.69336483 7.39329377,7.45716092 6.95462936,6.74854918 C6.34724787,5.7362467 5.73986638,4.65645738 5.09874148,3.61041149 C4.66007707,2.8005695 4.45761657,2.76682608 3.54654434,2.86805633 C1.55568279,3.10426024 0.847071051,4.58897055 0.273432978,6.20865452 C0.0709724815,6.71480576 0.0372290655,7.18721359 0.104715898,7.69336483 Z" id="Shape"></path>
                    <path d="M12.1056338,6.73943662 C14.1830986,6.73943662 15.8380282,8.42957746 15.8732394,10.471831 C15.8732394,11.1760563 15.6971831,11.8450704 15.3098592,12.443662 L17.7746479,12.3732394 C18.7957746,9.23943662 17.1056338,5.85915493 13.971831,4.8028169 C12.7394366,4.41549296 11.4014085,4.41549296 10.1690141,4.83802817 C10.1690141,5.64788732 10.1690141,6.49295775 10.1690141,7.26760563 C10.7676056,6.91549296 11.4366197,6.73943662 12.1056338,6.73943662 Z" id="Shape"></path>
                    <path d="M12.1056338,2.44366197 C16.5422535,2.44366197 20.1690141,6.07042254 20.1690141,10.5070423 C20.1690141,11.1056338 20.0985915,11.7042254 19.9577465,12.3028169 L22.2464789,12.2323944 C23.1971831,6.63380282 19.4295775,1.31690141 13.8309859,0.366197183 C12.6338028,0.154929577 11.4014085,0.154929577 10.2394366,0.401408451 C10.2042254,1.03521127 10.2042254,1.80985915 10.2042254,2.69014085 C10.8380282,2.51408451 11.471831,2.44366197 12.1056338,2.44366197 Z" id="Shape"></path>
                </g>
            </g>
        </g>
    </g>
</svg>