<?xml version="1.0" encoding="UTF-8"?>
<svg width="21px" height="19px" viewBox="0 0 21 19" version="1.1" xmlns="http://www.w3.org/2000/svg" xmlns:xlink="http://www.w3.org/1999/xlink">
    <!-- Generator: Sketch 46.2 (44496) - http://www.bohemiancoding.com/sketch -->
    <title>Telegram_2 Copy 3</title>
    <desc>Created with Sketch.</desc>
    <defs></defs>
    <g id="Page-1" stroke="none" stroke-width="1" fill="none" fill-rule="evenodd">
        <g id="yellow" transform="translate(-1832.000000, -421.000000)" fill-rule="nonzero" fill="#000000">
            <g id="Telegram_2-Copy-3" transform="translate(1832.000000, 421.000000)">
                <path d="M20.1478873,0.678321678 L0.887323944,8.05594406 C0.429577465,8.23076923 0.429577465,8.8951049 0.887323944,9.06993007 L5.57042254,10.8181818 L7.40140845,16.6223776 C7.54225352,17.006993 7.96478873,17.1118881 8.28169014,16.8671329 L10.9225352,14.7692308 C11.2042254,14.5594406 11.5915493,14.5594406 11.8732394,14.7342657 L16.5915493,18.1258741 C16.9084507,18.3706294 17.3661972,18.1958042 17.471831,17.7762238 L20.9225352,1.27272727 C20.9929577,0.888111888 20.5352113,0.503496503 20.1478873,0.678321678 Z M16.4859155,4.55944056 L8.91549296,11.5174825 C8.66901408,11.7622378 8.49295775,12.0769231 8.42253521,12.4615385 L8.17605634,14.3496503 C8.14084507,14.5944056 7.75352113,14.6293706 7.71830986,14.3846154 L6.6971831,10.9230769 C6.55633803,10.5034965 6.76760563,10.1188811 7.11971831,9.90909091 L16.2746479,4.31468531 C16.4507042,4.17482517 16.5915493,4.38461538 16.4859155,4.55944056 Z" id="Shape"></path>
            </g>
        </g>
    </g>
</svg>